<svg width="508" height="508" viewBox="0 0 508 508" fill="none" xmlns="http://www.w3.org/2000/svg">
<rect width="500" height="500" fill="black" fill-opacity="0" transform="translate(4 2)"/>
<g filter="url(#filter0_d)">
<circle cx="254" cy="252" r="250" fill="white"/>
</g>
<rect width="175" height="262.5" fill="black" fill-opacity="0" transform="translate(169 121)"/>
<path fill-rule="evenodd" clip-rule="evenodd" d="M256.5 121C243.752 158.556 243.115 177.883 256.5 208.5H344L256.5 121Z" fill="#6257E5"/>
<path fill-rule="evenodd" clip-rule="evenodd" d="M256.24 208.5C242.055 240.649 244.769 260.157 256.5 296C289.713 308.206 308.703 307.028 343.74 296L256.24 208.5Z" fill="#6376E8"/>
<path fill-rule="evenodd" clip-rule="evenodd" d="M169 208.5C203.171 218.152 222.329 218.82 256.5 208.5L256.5 121L169 208.5Z" fill="#6261E6"/>
<path fill-rule="evenodd" clip-rule="evenodd" d="M256.5 296V208.5H169L256.5 296Z" fill="#636BE7"/>
<path fill-rule="evenodd" clip-rule="evenodd" d="M256.5 383.5C263.318 349.329 263.953 330.171 256.5 296L169 296L256.5 383.5Z" fill="#658BEB"/>
<path fill-rule="evenodd" clip-rule="evenodd" d="M344 296L256.5 296L256.5 383.5L344 296Z" fill="#6480E9"/>
<defs>
<filter id="filter0_d" x="0" y="0" width="508" height="508" filterUnits="userSpaceOnUse" color-interpolation-filters="sRGB">
<feFlood flood-opacity="0" result="BackgroundImageFix"/>
<feColorMatrix in="SourceAlpha" type="matrix" values="0 0 0 0 0 0 0 0 0 0 0 0 0 0 0 0 0 0 255 0"/>
<feOffset dy="2"/>
<feGaussianBlur stdDeviation="2"/>
<feColorMatrix type="matrix" values="0 0 0 0 0 0 0 0 0 0 0 0 0 0 0 0 0 0 0.25 0"/>
<feBlend mode="normal" in2="BackgroundImageFix" result="effect1_dropShadow"/>
<feBlend mode="normal" in="SourceGraphic" in2="effect1_dropShadow" result="shape"/>
</filter>
</defs>
</svg>
