<svg width="380" height="190" viewBox="0 0 380 190" fill="none" xmlns="http://www.w3.org/2000/svg">
<rect width="380" height="190" fill="black" fill-opacity="0"/>
<line x1="272.518" y1="139.518" x2="235.468" y2="176.568" stroke="black" stroke-width="3"/>
<circle cx="316.667" cy="95" r="63.3333" fill="#658BEB"/>
<line x1="190" y1="92.5" x2="253.333" y2="92.5" stroke="black" stroke-width="3"/>
<path fill-rule="evenodd" clip-rule="evenodd" d="M190 95C190 147.467 147.467 190 95 190C42.533 190 0 147.467 0 95C0 42.533 42.533 0 95 0C147.467 0 190 42.533 190 95ZM144.717 69.8777L94.8417 19.95L44.9667 69.8777L94.8416 119.805H44.9667L94.8417 169.733L144.717 119.806L94.8417 69.8777H144.717Z" fill="#658BEB"/>
<rect width="95.079" height="61.5134" fill="black" fill-opacity="0" transform="translate(270.751 64.2833)"/>
<path opacity="0.5" d="M360.903 116.933C360.73 116.218 360.16 115.678 359.741 115.072C359.237 114.325 358.942 113.457 358.888 112.558C358.833 111.658 359.021 110.76 359.431 109.958C359.834 109.191 360.467 108.398 360.238 107.56C360.084 106.996 359.575 106.61 359.075 106.308C357.176 105.164 354.983 104.6 352.767 104.686C350.051 104.796 347.345 105.881 344.681 105.344C342.087 104.819 339.889 103.518 337.175 103.364C335.148 103.249 333.143 103.378 331.111 103.156C326.092 102.612 321.036 102.491 315.996 102.795C310.957 102.491 305.901 102.612 300.882 103.156C298.856 103.378 296.85 103.249 294.818 103.364C292.096 103.517 289.904 104.82 287.309 105.344C284.644 105.882 281.938 104.796 279.222 104.686C277.007 104.6 274.814 105.164 272.914 106.308C272.41 106.61 271.906 106.996 271.752 107.56C271.524 108.397 272.155 109.19 272.559 109.958C272.969 110.76 273.157 111.658 273.103 112.557C273.049 113.457 272.755 114.325 272.251 115.072C271.832 115.677 271.262 116.218 271.089 116.933C270.74 118.373 272.139 119.641 273.508 120.213C277.243 121.775 281.786 121.019 285.203 123.194C286.734 124.17 288.074 125.737 289.889 125.795C291.115 125.834 292.231 125.153 293.303 124.553C294.907 123.655 296.583 122.894 298.315 122.278C299.827 121.739 301.429 121.308 303.025 121.486C305.461 121.755 315.994 126.845 320.743 123.837C323.995 121.776 326.531 121.758 328.974 121.485C330.57 121.307 332.171 121.738 333.684 122.277C335.416 122.893 337.092 123.654 338.696 124.552C339.766 125.152 340.883 125.833 342.11 125.794C343.925 125.736 345.265 124.169 346.796 123.193C350.211 121.017 354.752 121.774 358.491 120.212C359.853 119.638 361.253 118.374 360.903 116.933Z" fill="url(#paint0_linear)"/>
<path d="M360.409 116.904C360.238 116.199 359.674 115.662 359.26 115.063C358.762 114.324 358.472 113.465 358.419 112.576C358.366 111.686 358.552 110.799 358.957 110.006C359.361 109.246 359.982 108.462 359.756 107.634C359.604 107.077 359.101 106.695 358.607 106.396C356.728 105.265 354.56 104.707 352.368 104.791C349.682 104.9 347.006 105.974 344.371 105.442C341.804 104.924 339.632 103.635 336.944 103.483C334.938 103.37 332.951 103.497 330.947 103.281C325.983 102.743 320.983 102.623 315.998 102.924C311.014 102.623 306.014 102.743 301.05 103.281C299.046 103.501 297.058 103.373 295.053 103.483C292.366 103.634 290.193 104.923 287.626 105.442C284.992 105.974 282.314 104.9 279.629 104.791C277.437 104.707 275.269 105.265 273.39 106.396C272.896 106.699 272.393 107.077 272.241 107.634C272.015 108.462 272.644 109.247 273.039 110.006C273.445 110.799 273.631 111.686 273.578 112.576C273.525 113.465 273.234 114.324 272.737 115.063C272.322 115.662 271.759 116.196 271.588 116.904C271.234 118.328 272.618 119.582 273.97 120.142C277.665 121.686 282.157 120.939 285.533 123.09C287.046 124.055 288.373 125.606 290.171 125.663C291.381 125.702 292.49 125.028 293.548 124.434C295.134 123.546 296.793 122.793 298.505 122.183C300.002 121.65 301.585 121.223 303.164 121.4C305.583 121.67 315.997 126.699 320.689 123.725C323.906 121.687 326.415 121.67 328.83 121.4C330.409 121.223 331.993 121.65 333.489 122.183C335.201 122.793 336.859 123.546 338.446 124.434C339.505 125.027 340.609 125.701 341.823 125.663C343.617 125.606 344.943 124.056 346.46 123.09C349.838 120.939 354.33 121.686 358.024 120.142C359.371 119.582 360.755 118.328 360.409 116.904Z" fill="black"/>
<path opacity="0.6" d="M274.267 86.3838C274.556 86.283 274.862 86.1873 275.164 86.2397C275.668 86.3274 276.022 86.8052 276.172 87.2962C276.322 87.7872 276.317 88.3044 276.413 88.8084C276.508 89.3125 276.737 89.8337 277.189 90.0746C277.641 90.3156 278.174 90.2208 278.675 90.1624C279.332 90.0866 279.996 90.0805 280.654 90.1442C281.206 90.1976 281.856 90.3841 282.018 90.9154C282.151 91.3489 281.887 91.7915 281.716 92.2099C281.387 92.9922 281.361 93.9167 281.737 94.6768C282.113 95.437 282.875 96.0035 283.193 96.806C283.286 97.0067 283.313 97.2314 283.27 97.4482C283.223 97.6 283.145 97.7406 283.042 97.8615C282.792 98.1831 282.494 98.4664 282.266 98.8052C281.791 99.5109 281.661 100.388 281.607 101.236C281.552 102.069 281.557 102.906 281.621 103.739C281.002 103.537 280.318 103.717 279.68 103.585C278.322 103.304 277.474 101.698 276.091 101.6C275.437 101.553 274.733 101.862 274.149 101.562C273.871 101.402 273.652 101.154 273.528 100.857C273.282 100.331 273.225 99.7358 273.369 99.1731C273.47 98.784 273.672 98.4029 273.632 98.0027C273.599 97.6599 273.393 97.3575 273.157 97.1064C272.485 96.3927 271.509 95.9561 271.026 95.1023C270.807 94.6966 270.715 94.234 270.763 93.7753C270.812 93.3166 270.998 92.8833 271.297 92.5325C271.47 92.3643 271.633 92.1869 271.786 92.0012C272.018 91.6746 272.089 91.2622 272.12 90.862C272.187 89.9033 272.019 88.8881 272.333 87.9565C272.614 87.1137 273.473 86.6661 274.267 86.3838Z" fill="#6257E5"/>
<path opacity="0.6" d="M359.505 74.3729C359.042 74.2086 358.551 74.0584 358.068 74.1421C357.262 74.2832 356.693 75.0494 356.455 75.8347C356.217 76.6201 356.222 77.4578 356.069 78.2644C355.916 79.0709 355.549 79.9066 354.825 80.2937C354.101 80.6809 353.246 80.5276 352.443 80.4349C351.39 80.3122 350.328 80.301 349.273 80.4016C348.387 80.4873 347.348 80.7867 347.087 81.6376C346.875 82.3332 347.297 83.0409 347.579 83.7113C348.107 84.9645 348.149 86.4474 347.545 87.6663C346.931 88.9063 345.72 89.7935 345.21 91.0788C345.081 91.4055 345 91.7674 345.087 92.1072C345.163 92.3508 345.288 92.5765 345.453 92.7705C345.857 93.2867 346.332 93.7413 346.697 94.2827C347.458 95.4118 347.665 96.8192 347.754 98.1782C347.841 99.5142 347.834 100.855 347.732 102.19C348.724 101.863 349.821 102.154 350.843 101.944C353.019 101.495 354.378 98.9192 356.595 98.7619C357.644 98.6883 358.772 99.1813 359.707 98.7014C360.163 98.4675 360.487 98.031 360.703 97.5662C361.092 96.7238 361.178 95.7726 360.944 94.8745C360.78 94.2505 360.46 93.6405 360.523 92.9983C360.576 92.4489 360.905 91.964 361.284 91.5628C362.362 90.4185 363.926 89.7189 364.701 88.3508C365.427 87.0685 365.243 85.3334 364.266 84.2315C364.01 83.9422 363.706 83.6942 363.482 83.3797C363.11 82.8564 362.991 82.1951 362.947 81.5539C362.841 80.0165 363.102 78.3904 362.605 76.8973C362.151 75.5383 360.775 74.8195 359.505 74.3729Z" fill="#6257E5"/>
<path d="M278.297 64.2833V66.8027V114.207H351.582V66.8027V64.2833H278.297Z" fill="url(#paint1_linear)"/>
<path d="M350.806 66.5486H279.384V113.303H350.806V66.5486Z" fill="white"/>
<path d="M350.806 64.3247H279.384V67.7645H350.806V64.3247Z" fill="#EEEEEE"/>
<path d="M282.102 66.8259C282.562 66.8259 282.935 66.4526 282.935 65.9922C282.935 65.5317 282.562 65.1584 282.102 65.1584C281.641 65.1584 281.268 65.5317 281.268 65.9922C281.268 66.4526 281.641 66.8259 282.102 66.8259Z" fill="#FF5252"/>
<path d="M284.395 66.8259C284.856 66.8259 285.229 66.4526 285.229 65.9922C285.229 65.5317 284.856 65.1584 284.395 65.1584C283.935 65.1584 283.561 65.5317 283.561 65.9922C283.561 66.4526 283.935 66.8259 284.395 66.8259Z" fill="#FFFF00"/>
<path d="M286.689 66.8259C287.149 66.8259 287.522 66.4526 287.522 65.9922C287.522 65.5317 287.149 65.1584 286.689 65.1584C286.228 65.1584 285.855 65.5317 285.855 65.9922C285.855 66.4526 286.228 66.8259 286.689 66.8259Z" fill="#69F0AE"/>
<path opacity="0.5" d="M308.736 73.2739H282.121V74.3829H308.736V73.2739Z" fill="#6257E5"/>
<path opacity="0.5" d="M308.736 75.4919H282.121V76.6009H308.736V75.4919Z" fill="#6257E5"/>
<path opacity="0.5" d="M308.736 77.7097H282.121V78.8187H308.736V77.7097Z" fill="#6257E5"/>
<path opacity="0.5" d="M308.736 79.9277H291.295V81.0367H308.736V79.9277Z" fill="#6257E5"/>
<path opacity="0.5" d="M296.134 82.1455H282.121V83.2545H296.134V82.1455Z" fill="#6257E5"/>
<path opacity="0.5" d="M300.469 84.3635H289.682V85.4725H300.469V84.3635Z" fill="#6257E5"/>
<path opacity="0.5" d="M343.617 81.0366H312.264V99.0824H343.617V81.0366Z" fill="#6257E5"/>
<path d="M347.348 82.7505H315.994V100.796H347.348V82.7505Z" fill="#EEEEEE"/>
<g opacity="0.1">
<rect width="2.85403" height="3.35812" fill="black" fill-opacity="0" transform="translate(358.934 99.905)"/>
<path opacity="0.1" d="M359.339 99.905C359.339 99.905 359.475 101.756 358.982 102.242C358.964 102.258 358.951 102.278 358.943 102.3C358.935 102.322 358.932 102.346 358.935 102.37C358.938 102.393 358.947 102.415 358.96 102.435C358.973 102.454 358.991 102.471 359.012 102.482L360.478 103.263L361.788 100.759L359.339 99.905Z" fill="black"/>
</g>
<g opacity="0.1">
<rect width="9.43116" height="12.1298" fill="black" fill-opacity="0" transform="translate(355.639 89.1611)"/>
<path opacity="0.1" d="M363.266 100.816C361.502 101.272 361.274 100.76 361.16 100.816C361.046 100.873 361.563 100.532 360.99 100.76C360.416 100.988 359.567 100.076 359.567 100.076C359.575 99.9755 359.579 99.8817 359.579 99.7839C359.586 97.8836 358.144 95.9782 358.144 95.9782C355.523 94.5557 356.436 92.5061 356.436 92.5061L356.33 91.5716L356.053 89.1611C355.919 89.2215 355.78 89.2711 355.639 89.3093L355.927 91.8569L356.035 92.7904C356.035 92.7904 355.127 94.84 357.743 96.2625C357.743 96.2625 359.185 98.1679 359.178 100.068C359.178 100.169 359.178 100.263 359.166 100.361C359.166 100.361 360.02 101.268 360.589 101.044C361.157 100.82 360.645 101.158 360.759 101.101C360.873 101.043 361.101 101.556 362.865 101.101C363.665 100.893 364.415 100.526 365.07 100.021C364.515 100.38 363.906 100.649 363.266 100.816V100.816Z" fill="#FAA916"/>
</g>
<g opacity="0.1">
<rect width="10.1922" height="13.0443" fill="black" fill-opacity="0" transform="translate(355.638 87.6118)"/>
<path opacity="0.1" d="M356.196 89.0918C356.017 89.1818 355.83 89.2541 355.638 89.3075L355.648 89.3932C355.836 89.3026 356.019 89.2019 356.196 89.0918V89.0918Z" fill="black"/>
<path opacity="0.1" d="M365.828 99.0522C365.771 98.649 363.494 96.0923 362.925 92.962C362.357 89.8317 358.994 87.6118 358.994 87.6118C358.994 87.6118 358.883 87.6733 358.691 87.756C358.18 87.9757 357.682 88.2265 357.201 88.507C357.52 88.339 357.846 88.1838 358.179 88.0413C358.372 87.9586 358.481 87.8971 358.481 87.8971C358.481 87.8971 361.84 90.115 362.413 93.2473C362.987 96.3796 365.259 98.9393 365.316 99.3375C365.352 99.5885 364.867 100.156 364.062 100.656C365.167 100.107 365.871 99.3526 365.828 99.0522Z" fill="black"/>
</g>
<path d="M333.536 100.796H315.994V97.4904C320.28 95.4873 326.874 94.3622 333.536 100.796Z" fill="#6257E5"/>
<g opacity="0.1">
<rect width="21.8767" height="4.87154" fill="black" fill-opacity="0" transform="translate(325.269 95.9246)"/>
<path opacity="0.1" d="M347.146 100.323V100.796H325.269V100.695C325.269 100.695 336.034 90.2136 347.146 100.323Z" fill="black"/>
</g>
<path d="M347.348 100.323V100.796H325.471V100.695C325.471 100.695 336.236 90.2136 347.348 100.323Z" fill="#6257E5"/>
<path d="M319.624 87.5896C320.515 87.5896 321.237 86.8674 321.237 85.9766C321.237 85.0857 320.515 84.3635 319.624 84.3635C318.733 84.3635 318.011 85.0857 318.011 85.9766C318.011 86.8674 318.733 87.5896 319.624 87.5896Z" fill="#6257E5"/>
<path d="M333.357 84.7567C333.172 84.7567 332.966 84.7567 332.826 84.7678C332.764 84.7713 332.702 84.7838 332.643 84.8051L331.694 85.1459C332.46 85.165 333.26 85.159 334.045 85.1529L338.449 85.1187C338.898 85.1187 339.37 85.1106 339.744 85.0844C339.995 85.0662 340.18 85.04 340.412 85.0199C341.245 84.9453 342.46 84.9594 343.546 84.9634C344.632 84.9674 345.942 84.9392 346.324 84.8303H343.993C343.742 84.8303 343.478 84.8303 343.257 84.8182C342.997 84.8031 342.839 84.7749 342.611 84.7547C342.234 84.7225 341.714 84.7184 341.23 84.7164C338.574 84.7053 335.951 84.7678 333.357 84.7567Z" fill="#F4F4F4"/>
<path d="M335.966 86.7105C335.925 86.7105 335.881 86.7105 335.851 86.7105C335.837 86.7112 335.823 86.7139 335.81 86.7186L335.609 86.7922C335.775 86.7922 335.948 86.7922 336.118 86.7922L337.072 86.7851C337.172 86.7851 337.273 86.7851 337.352 86.7781C337.406 86.7781 337.447 86.768 337.496 86.764C337.676 86.7478 337.94 86.7508 338.176 86.7519C338.378 86.7586 338.58 86.7489 338.78 86.7226H338.276C338.222 86.7226 338.164 86.7226 338.117 86.7226C338.07 86.7226 338.026 86.7135 337.977 86.7085C337.895 86.7014 337.782 86.7004 337.674 86.7004C337.1 86.7004 336.531 86.7135 335.966 86.7105Z" fill="#F4F4F4"/>
<path d="M329.211 89.5333C329.171 89.5333 329.126 89.5333 329.096 89.5333C329.082 89.534 329.069 89.5367 329.056 89.5413L328.854 89.6149C329.021 89.6149 329.193 89.6149 329.363 89.6149L330.317 89.6079C330.418 89.6079 330.519 89.6079 330.597 89.6008C330.652 89.6008 330.692 89.5907 330.741 89.5867C330.922 89.5706 331.185 89.5736 331.421 89.5746C331.623 89.5814 331.825 89.5716 332.026 89.5454H331.522C331.467 89.5454 331.41 89.5454 331.362 89.5454C331.315 89.5454 331.272 89.5363 331.222 89.5313C331.141 89.5242 331.028 89.5232 330.92 89.5232C330.345 89.5232 329.777 89.5363 329.211 89.5333Z" fill="#F4F4F4"/>
<path d="M325.422 99.9021H324.663C324.663 99.9021 324.426 91.6112 325.422 89.0525H325.611C325.611 89.0525 324.948 98.4333 325.422 99.9021Z" fill="#6257E5"/>
<path d="M324.9 88.6259C324.9 88.6259 324.284 90.3317 324.569 91.0898C324.569 91.0898 324.995 89.5261 325.492 89.2892C325.989 89.0523 326.51 91.0898 326.51 91.0898C326.51 91.0898 326.795 89.8104 326.273 88.7711C326.273 88.7711 327.316 89.3396 327.837 90.4294C327.837 90.4294 327.932 89.7237 326.7 88.2498C326.7 88.2498 327.79 88.5341 328.5 89.1975C328.5 89.1975 328.737 88.6763 327.268 87.8234C327.268 87.8234 327.458 87.2074 328.595 87.4917C328.595 87.4917 328.595 86.6852 326.795 86.8284C326.795 86.8284 326.795 86.3072 327.979 86.4019C327.979 86.4019 327.979 85.7386 326.605 85.9755C326.605 85.9755 326.889 85.549 327.079 85.4543C326.842 85.4324 326.605 85.5 326.416 85.6438C326.416 85.6438 326.463 84.7909 325.752 84.4592L325.657 85.6438C325.657 85.6438 324.861 84.7052 325.041 84.8857C325.089 84.9331 325.231 85.5016 325.184 85.7859C325.184 85.7859 324.377 85.1226 323.383 85.8333C323.383 85.8333 324.615 85.9281 324.805 86.3545C324.805 86.3545 323.762 86.165 323.525 86.3072C323.525 86.3072 324.332 86.5914 324.283 86.781C324.283 86.781 322.862 86.781 322.67 87.3022C322.67 87.3022 324.139 87.4917 324.234 87.6339C324.234 87.6339 322.528 88.8658 322.433 89.1975C322.433 89.1975 324.187 88.1551 324.471 88.1551C324.755 88.1551 323.191 89.6673 323.286 90.0504C323.29 90.0474 324.574 88.5311 324.9 88.6259Z" fill="#6257E5"/>
<path d="M334.772 99.5914H335.351C335.351 99.5914 335.532 93.2573 334.772 91.3025H334.627C334.627 91.3025 335.135 98.4674 334.772 99.5914Z" fill="#6257E5"/>
<path d="M335.17 90.9769C335.17 90.9769 335.641 92.2805 335.423 92.8591C335.423 92.8591 335.098 91.6645 334.718 91.484C334.338 91.3036 333.939 92.8591 333.939 92.8591C333.939 92.8591 333.723 91.8822 334.121 91.0858C333.611 91.3874 333.197 91.8266 332.926 92.353C332.926 92.353 332.854 91.8096 333.795 90.6876C333.795 90.6876 332.962 90.9043 332.42 91.4114C332.42 91.4114 332.239 91.0132 333.362 90.362C333.362 90.362 333.216 89.8912 332.348 90.1089C332.348 90.1089 332.348 89.4939 333.724 89.6048C333.724 89.6048 333.724 89.2066 332.816 89.2792C332.816 89.2792 332.816 88.7751 333.866 88.9536C333.866 88.9536 333.649 88.628 333.504 88.5554C333.684 88.5394 333.864 88.5912 334.008 88.7005C334.008 88.7005 333.972 88.0493 334.512 87.7932L334.585 88.7005C334.585 88.7005 335.189 87.9838 335.055 88.1219C334.969 88.3402 334.931 88.575 334.946 88.8094C334.946 88.8094 335.561 88.3053 336.322 88.8457C336.322 88.8457 335.38 88.9183 335.236 89.2439C335.236 89.2439 336.032 89.0988 336.213 89.2076C336.213 89.2076 335.598 89.4244 335.634 89.5696C335.634 89.5696 336.72 89.5696 336.865 89.9678C336.865 89.9678 335.743 90.1129 335.67 90.2208C335.67 90.2208 336.974 91.1624 337.045 91.4155C337.045 91.4155 335.707 90.619 335.489 90.619C335.271 90.619 336.466 91.7774 336.396 92.0667C336.401 92.0627 335.424 90.9064 335.17 90.9769Z" fill="#6257E5"/>
<path d="M341.701 98.3534H342.06C342.06 98.3534 342.172 94.4307 341.701 93.22H341.611C341.611 93.22 341.925 97.6608 341.701 98.3534Z" fill="#6257E5"/>
<path d="M341.948 93.0184C341.948 93.0184 342.239 93.8249 342.105 94.1838C342.105 94.1838 341.904 93.4438 341.668 93.3319C341.432 93.22 341.186 94.1838 341.186 94.1838C341.186 94.1838 341.052 93.5789 341.298 93.0849C340.982 93.2716 340.726 93.5434 340.558 93.8692C340.558 93.8692 340.513 93.5325 341.096 92.8379C340.783 92.925 340.493 93.0779 340.244 93.2865C340.244 93.2865 340.132 93.0395 340.827 92.6363C340.827 92.6363 340.737 92.3449 340.199 92.479C340.199 92.479 340.199 92.0979 341.051 92.1655C341.051 92.1655 341.051 91.9185 340.49 91.9639C340.49 91.9639 340.49 91.6503 341.14 91.7622C341.08 91.6678 341.005 91.5843 340.917 91.5152C341.029 91.505 341.141 91.537 341.23 91.605C341.23 91.605 341.208 91.2017 341.544 91.0444L341.588 91.605C341.588 91.605 341.965 91.1614 341.879 91.2461C341.826 91.3811 341.803 91.5264 341.812 91.6715C341.936 91.5807 342.088 91.5337 342.242 91.5377C342.396 91.5417 342.544 91.5965 342.664 91.6937C342.664 91.6937 342.081 91.738 341.991 91.9407C341.991 91.9407 342.484 91.8509 342.596 91.9185C342.596 91.9185 342.215 92.0526 342.237 92.1423C342.237 92.1423 342.91 92.1423 342.999 92.3893C342.999 92.3893 342.305 92.479 342.259 92.5466C342.259 92.5466 343.066 93.1293 343.111 93.2865C343.111 93.2865 342.282 92.7936 342.148 92.7936C342.014 92.7936 342.752 93.5114 342.708 93.6898C342.71 93.6908 342.104 92.973 341.948 93.0184Z" fill="#6257E5"/>
<path d="M328.595 93.9177L328.52 93.5144C328.519 93.4848 328.513 93.4555 328.502 93.4282C328.49 93.401 328.473 93.3765 328.451 93.3561L328.101 93.1848C328.075 93.1545 328.054 93.1205 328.039 93.084L328.045 93.0749C328.064 93.0509 328.078 93.0231 328.085 92.9932C328.086 92.9855 328.086 92.9777 328.085 92.97H328.09C328.122 92.9743 328.155 92.9664 328.182 92.9477C328.208 92.929 328.227 92.901 328.234 92.8692V92.8601C328.228 92.8874 328.213 92.9119 328.192 92.9301C328.171 92.9482 328.144 92.9591 328.116 92.961C328.165 92.9283 328.205 92.8842 328.232 92.8326C328.26 92.7809 328.275 92.7232 328.275 92.6646C328.275 92.6646 328.275 92.6545 328.275 92.6494C328.29 92.64 328.303 92.6274 328.314 92.6124C328.324 92.5975 328.331 92.5806 328.334 92.5627V92.5537C328.33 92.5706 328.322 92.5864 328.312 92.6003C328.301 92.6141 328.288 92.6257 328.273 92.6343C328.27 92.5998 328.263 92.5659 328.25 92.5335H328.259C328.294 92.5335 328.327 92.5198 328.351 92.4954C328.376 92.471 328.389 92.4379 328.389 92.4035C328.389 92.4035 328.389 92.3974 328.389 92.3944C328.387 92.4271 328.373 92.4578 328.349 92.4802C328.325 92.5026 328.293 92.5152 328.26 92.5154H328.244V92.5093C328.283 92.4977 328.318 92.4753 328.344 92.4448C328.37 92.4143 328.388 92.3768 328.394 92.3369C328.394 92.3369 328.394 92.3309 328.394 92.3278C328.392 92.3531 328.383 92.3773 328.367 92.3974C328.369 92.3651 328.359 92.3333 328.338 92.3083C328.318 92.2832 328.289 92.2667 328.257 92.2619C328.225 92.2571 328.192 92.2644 328.165 92.2824C328.138 92.3004 328.119 92.3277 328.111 92.3591L328.088 92.346C328.095 92.32 328.11 92.2969 328.131 92.28C328.152 92.263 328.178 92.2529 328.205 92.2512H328.196C328.169 92.251 328.142 92.2594 328.12 92.2751C328.098 92.2908 328.081 92.3132 328.072 92.3389C327.994 92.3027 327.906 92.2958 327.823 92.3195C327.74 92.3432 327.669 92.3959 327.622 92.468C327.595 92.4881 327.56 92.5174 327.561 92.5426C327.549 92.5543 327.539 92.5671 327.53 92.5809C327.491 92.6651 327.477 92.7583 327.489 92.8501C327.495 92.8957 327.489 92.9419 327.473 92.9849C327.457 93.0279 327.431 93.0664 327.396 93.0971C327.411 93.1033 327.428 93.1065 327.444 93.1065C327.46 93.1065 327.476 93.1033 327.491 93.0971C327.521 93.0844 327.549 93.0678 327.575 93.0477C327.599 93.0332 327.619 93.0135 327.634 92.9902V92.9852C327.651 92.9964 327.669 93.0058 327.688 93.0134C327.695 93.0739 327.697 93.1434 327.67 93.1666L327.675 93.1555C327.61 93.2044 327.529 93.2274 327.448 93.2201C327.399 93.2228 327.352 93.2382 327.31 93.2647C327.269 93.2912 327.236 93.3279 327.213 93.3713L327.103 93.83V93.838V93.8461C327.105 93.8523 327.108 93.8579 327.113 93.8623C327.117 93.8668 327.123 93.8699 327.129 93.8713L327.164 93.8804C327.169 93.9588 327.161 94.0374 327.14 94.1133C327.117 94.2262 327.104 94.3409 327.101 94.456C327.109 94.5135 327.123 94.8129 327.13 94.9551C327.118 95.0036 327.108 95.0527 327.101 95.1022L326.939 96.0761C326.939 96.0761 326.818 96.8554 326.824 97.0913L326.803 97.2274C326.803 97.2274 326.473 97.6408 326.57 97.6992C326.667 97.7577 326.816 97.7829 326.958 97.5631C326.977 97.5113 327.008 97.4647 327.049 97.427C327.065 97.4131 327.077 97.3954 327.085 97.3756C327.093 97.3558 327.096 97.3343 327.094 97.3131L327.084 97.2123L327.101 97.2183H327.111C327.111 97.2183 327.273 96.685 327.255 96.311C327.255 96.311 327.558 95.2404 327.785 95.072V95.0649L327.806 95.0549L327.854 96.0922L327.805 97.2355L327.794 97.304C327.794 97.304 327.464 97.7174 327.561 97.7758C327.658 97.8343 327.807 97.8595 327.949 97.6397C327.968 97.5879 327.999 97.5414 328.04 97.5036C328.056 97.4897 328.068 97.472 328.076 97.4522C328.084 97.4324 328.087 97.411 328.085 97.3897L328.07 97.2385C328.126 97.0459 328.272 96.4915 328.212 96.1699L328.313 95.4864C328.414 95.3724 328.401 95.0831 328.401 95.0831C328.48 94.9168 328.501 94.2645 328.501 94.2645L328.522 93.9419C328.537 93.9406 328.552 93.9406 328.567 93.9419H328.577H328.583V93.9358C328.586 93.9333 328.588 93.9302 328.59 93.9268H328.596V93.9187L328.595 93.9177ZM328.313 94.573C328.304 94.5508 328.294 94.5286 328.283 94.5064H328.275V94.4984C328.274 94.4957 328.274 94.493 328.275 94.4903V94.4822C328.279 94.4714 328.283 94.4603 328.287 94.449C328.3 94.4282 328.306 94.404 328.306 94.3794C328.318 94.4432 328.32 94.5085 328.313 94.573V94.573ZM328.283 94.2967L328.262 94.081L328.268 94.0639L328.296 94.3381L328.283 94.2967ZM327.327 94.326C327.32 94.3339 327.315 94.3432 327.312 94.3533C327.309 94.3634 327.308 94.374 327.309 94.3845C327.309 94.3845 327.309 94.3845 327.309 94.3915C327.309 94.4133 327.312 94.435 327.318 94.456L327.287 94.5911V94.333C327.307 94.3058 327.325 94.2768 327.341 94.2463C327.344 94.2737 327.339 94.3014 327.327 94.326V94.326Z" fill="url(#paint2_linear)"/>
<path d="M327.531 92.6606C327.493 92.7416 327.48 92.8314 327.491 92.9197C327.497 92.9637 327.491 93.0083 327.475 93.0497C327.46 93.0911 327.434 93.1281 327.402 93.1577C327.416 93.1637 327.432 93.1669 327.447 93.1669C327.463 93.1669 327.479 93.1637 327.493 93.1577C327.522 93.1455 327.549 93.1296 327.574 93.1103C327.597 93.0963 327.617 93.0774 327.631 93.0548C327.645 93.02 327.65 92.9821 327.644 92.9449C327.645 92.879 327.65 92.8133 327.662 92.7484C327.668 92.708 327.706 92.5981 327.662 92.577C327.617 92.5558 327.55 92.6304 327.531 92.6606Z" fill="#72351C"/>
<path d="M326.864 96.946L326.833 97.1477C326.833 97.1477 326.515 97.5509 326.609 97.6023C326.703 97.6538 326.846 97.683 326.983 97.4713C327.001 97.4215 327.031 97.3766 327.07 97.3402V97.3402C327.085 97.3267 327.097 97.3097 327.105 97.2906C327.112 97.2714 327.115 97.2508 327.113 97.2303L327.082 96.9229L326.864 96.946Z" fill="#333333"/>
<path d="M327.82 97.0259L327.789 97.2275C327.789 97.2275 327.471 97.6308 327.565 97.6822C327.659 97.7336 327.802 97.7628 327.939 97.5511C327.957 97.5013 327.987 97.4564 328.026 97.4201V97.4201C328.041 97.4066 328.053 97.3895 328.061 97.3704C328.068 97.3513 328.071 97.3306 328.069 97.3102L328.038 97.0027L327.82 97.0259Z" fill="#333333"/>
<path d="M327.325 94.6153C327.325 94.6153 327.176 94.7231 327.123 95.0982L326.967 96.0368C326.967 96.0368 326.835 96.8876 326.859 97.0509L327.123 97.1417C327.123 97.1417 327.28 96.6275 327.262 96.2696C327.262 96.2696 327.58 95.1385 327.803 95.0599L327.85 96.0589L327.8 97.183L328.026 97.2284C328.026 97.2284 328.254 96.5126 328.182 96.1335L328.3 95.327C328.3 95.327 328.435 94.8965 328.247 94.5205L327.325 94.6153Z" fill="#4D8AF0"/>
<g opacity="0.1">
<rect width="1.25244" height="2.70081" fill="black" fill-opacity="0" transform="translate(327.103 94.5256)"/>
<path opacity="0.1" d="M327.78 95.075V95.0579C327.557 95.1375 327.239 96.2676 327.239 96.2676C327.234 96.5602 327.188 96.8506 327.103 97.1306L327.131 97.1407C327.131 97.1407 327.288 96.6265 327.27 96.2686C327.269 96.2696 327.56 95.2413 327.78 95.075Z" fill="black"/>
<path opacity="0.1" d="M328.256 94.5256H328.226C328.335 94.7784 328.352 95.0608 328.277 95.3251L328.159 96.1316C328.228 96.4905 328.026 97.1508 328.004 97.2204L328.034 97.2264C328.034 97.2264 328.262 96.5107 328.19 96.1316L328.308 95.3251C328.308 95.3251 328.444 94.8966 328.256 94.5256Z" fill="black"/>
</g>
<path d="M327.122 93.8804C327.122 93.8881 327.125 93.8957 327.129 93.9017C327.134 93.9078 327.141 93.912 327.148 93.9137C327.222 93.9322 327.291 93.9666 327.35 94.0145C327.461 94.1012 327.232 93.8411 327.232 93.8411L327.156 93.8582L327.124 93.8864L327.122 93.8804Z" fill="#F55F44"/>
<path opacity="0.1" d="M327.122 93.8804C327.122 93.8881 327.125 93.8957 327.129 93.9017C327.134 93.9078 327.141 93.912 327.148 93.9137C327.222 93.9322 327.291 93.9666 327.35 94.0145C327.461 94.1012 327.232 93.8411 327.232 93.8411L327.156 93.8582L327.124 93.8864L327.122 93.8804Z" fill="black"/>
<path d="M328.213 94.1103C328.306 94.044 328.414 94.0015 328.528 93.9862C328.535 93.9862 328.543 93.9832 328.548 93.9777C328.554 93.9722 328.557 93.9648 328.557 93.957V93.957C328.557 93.957 328.293 93.8532 328.213 94.1103Z" fill="#F55F44"/>
<path opacity="0.1" d="M328.557 93.956C328.557 93.956 328.293 93.8552 328.213 94.1093C328.213 94.1093 328.408 93.9601 328.543 93.9842" fill="black"/>
<path d="M327.907 93.085C328.096 93.085 328.25 92.9311 328.25 92.7412C328.25 92.5514 328.096 92.3975 327.907 92.3975C327.717 92.3975 327.563 92.5514 327.563 92.7412C327.563 92.9311 327.717 93.085 327.907 93.085Z" fill="#72351C"/>
<path d="M327.67 92.9821C327.67 92.9821 327.718 93.1837 327.67 93.2251C327.621 93.2664 327.523 93.343 327.597 93.4025C327.671 93.462 327.934 93.5628 328.022 93.5134C328.109 93.464 328.209 93.4791 328.185 93.3783C328.161 93.2775 327.969 93.2987 327.966 92.7976L327.67 92.9821Z" fill="#FDB797"/>
<path opacity="0.1" d="M327.183 93.8198C327.19 93.9292 327.183 94.039 327.162 94.1465C327.139 94.255 327.126 94.3653 327.123 94.4761C327.133 94.5487 327.155 95.0286 327.155 95.0286C327.155 95.0286 327.116 95.449 327.321 95.4107C327.526 95.3724 327.29 94.9308 327.29 94.9308L327.3 94.3572C327.355 94.2818 327.39 94.1931 327.4 94.1001C327.416 93.962 327.183 93.8198 327.183 93.8198Z" fill="black"/>
<path d="M327.18 93.8198C327.187 93.9292 327.18 94.039 327.159 94.1465C327.136 94.255 327.123 94.3653 327.12 94.4761C327.13 94.5487 327.151 95.0286 327.151 95.0286C327.151 95.0286 327.113 95.449 327.318 95.4107C327.522 95.3724 327.287 94.9308 327.287 94.9308L327.297 94.3572C327.352 94.2818 327.387 94.1931 327.397 94.1001C327.412 93.962 327.18 93.8198 327.18 93.8198Z" fill="#FDB797"/>
<path opacity="0.1" d="M328.489 93.8511L328.461 94.2997C328.461 94.2997 328.444 94.9288 328.367 95.0881C328.367 95.0881 328.388 95.5296 328.183 95.5185C327.977 95.5075 328.217 95.0356 328.217 95.0356C328.217 95.0356 328.327 94.5447 328.271 94.3894L328.217 93.8511H328.489Z" fill="black"/>
<path d="M328.492 93.8511L328.464 94.2997C328.464 94.2997 328.447 94.9288 328.37 95.0881C328.37 95.0881 328.391 95.5296 328.186 95.5185C327.98 95.5075 328.22 95.0356 328.22 95.0356C328.22 95.0356 328.33 94.5447 328.274 94.3894L328.22 93.8511H328.492Z" fill="#FDB797"/>
<path opacity="0.1" d="M327.826 93.4166C327.826 93.4166 327.992 93.4932 328.083 93.2654L328.421 93.4307C328.442 93.4504 328.458 93.4742 328.469 93.5006C328.481 93.5269 328.486 93.5553 328.486 93.5839L328.559 93.9731C328.559 93.9731 328.312 93.8894 328.235 94.1193L328.256 94.338C328.272 94.392 328.268 94.45 328.245 94.5013C328.243 94.506 328.242 94.5109 328.242 94.516C328.242 94.521 328.243 94.526 328.245 94.5306C328.25 94.5465 328.252 94.5634 328.249 94.5799C328.246 94.5964 328.24 94.612 328.23 94.6255C328.22 94.6391 328.207 94.6501 328.192 94.6578C328.178 94.6655 328.161 94.6695 328.145 94.6697C328.054 94.6707 327.963 94.6778 327.873 94.6909C327.801 94.712 327.581 94.6495 327.508 94.6909C327.436 94.7322 327.283 94.6596 327.283 94.6596L327.324 94.4822C327.324 94.4822 327.296 94.3955 327.331 94.3642C327.366 94.333 327.345 94.0618 327.314 93.9852C327.314 93.9852 327.189 93.8672 327.112 93.8844L327.213 93.4357C327.235 93.3939 327.267 93.3584 327.307 93.3328C327.346 93.3072 327.392 93.2923 327.439 93.2896C327.517 93.2966 327.595 93.2743 327.658 93.2271C327.658 93.2271 327.582 93.3924 327.826 93.4166Z" fill="black"/>
<path opacity="0.1" d="M327.843 93.4084C327.888 93.4205 328.009 93.4336 328.082 93.2511L328.42 93.4165C328.44 93.4362 328.457 93.46 328.468 93.4863C328.48 93.5127 328.485 93.5411 328.485 93.5697L328.558 93.9589C328.558 93.9589 328.311 93.8752 328.234 94.105L328.255 94.3238L328.27 94.3671C328.276 94.3857 328.277 94.4054 328.274 94.4246C328.271 94.4439 328.264 94.4622 328.252 94.478C328.248 94.4835 328.244 94.4901 328.243 94.4972C328.242 94.5043 328.243 94.5116 328.245 94.5184C328.25 94.5343 328.252 94.5512 328.249 94.5677C328.246 94.5842 328.24 94.5998 328.23 94.6133C328.22 94.6269 328.207 94.6379 328.192 94.6456C328.178 94.6532 328.161 94.6573 328.145 94.6575C328.054 94.6585 327.963 94.6656 327.873 94.6787C327.801 94.6998 327.581 94.6373 327.508 94.6787C327.436 94.72 327.283 94.6474 327.283 94.6474L327.324 94.47C327.324 94.47 327.296 94.3833 327.331 94.352C327.366 94.3208 327.345 94.0496 327.314 93.973C327.314 93.973 327.189 93.855 327.112 93.8722L327.213 93.4235C327.235 93.3817 327.267 93.3462 327.307 93.3206C327.346 93.295 327.392 93.2801 327.439 93.2773C327.517 93.2843 327.595 93.2621 327.658 93.2148C327.658 93.2148 327.576 93.3641 327.791 93.3963L327.843 93.4084Z" fill="black"/>
<path d="M327.843 93.4156C327.888 93.4276 328.009 93.4408 328.082 93.2583L328.42 93.4236C328.441 93.4434 328.457 93.4671 328.468 93.4935C328.48 93.5198 328.485 93.5482 328.485 93.5769L328.558 93.966C328.558 93.966 328.311 93.8823 328.234 94.1122L328.255 94.3309C328.271 94.385 328.267 94.4429 328.244 94.4943C328.242 94.4989 328.241 94.5038 328.241 94.5089C328.241 94.5139 328.242 94.5189 328.244 94.5235C328.249 94.5394 328.251 94.5563 328.248 94.5728C328.245 94.5893 328.239 94.6049 328.229 94.6185C328.219 94.632 328.206 94.643 328.191 94.6507C328.177 94.6584 328.16 94.6625 328.143 94.6626C328.053 94.6637 327.962 94.6707 327.872 94.6838C327.8 94.705 327.58 94.6425 327.507 94.6838C327.435 94.7251 327.282 94.6525 327.282 94.6525L327.323 94.4751C327.323 94.4751 327.295 94.3884 327.33 94.3572C327.365 94.3259 327.344 94.0547 327.313 93.9781C327.313 93.9781 327.188 93.8601 327.111 93.8773L327.212 93.4287C327.234 93.3868 327.266 93.3513 327.306 93.3257C327.345 93.3001 327.391 93.2852 327.438 93.2825C327.516 93.2895 327.594 93.2672 327.657 93.22C327.657 93.22 327.575 93.3692 327.79 93.4014L327.843 93.4156Z" fill="#F55F44"/>
<path opacity="0.1" d="M327.971 92.8159L327.676 93.0004C327.683 93.0337 327.689 93.0673 327.693 93.1012C327.727 93.1146 327.762 93.1215 327.799 93.1214C327.871 93.1163 327.939 93.0856 327.99 93.0347C327.977 92.9625 327.97 92.8893 327.971 92.8159V92.8159Z" fill="black"/>
<path d="M327.793 93.0989C327.95 93.0989 328.078 92.9712 328.078 92.8136C328.078 92.6561 327.95 92.5283 327.793 92.5283C327.635 92.5283 327.507 92.6561 327.507 92.8136C327.507 92.9712 327.635 93.0989 327.793 93.0989Z" fill="#FDB797"/>
<path d="M328.213 92.595C328.282 92.595 328.338 92.539 328.338 92.47C328.338 92.4009 328.282 92.345 328.213 92.345C328.144 92.345 328.088 92.4009 328.088 92.47C328.088 92.539 328.144 92.595 328.213 92.595Z" fill="#72351C"/>
<path d="M328.237 92.602C328.206 92.6021 328.175 92.5902 328.152 92.5687C328.129 92.5472 328.115 92.5176 328.112 92.4861C328.112 92.4861 328.112 92.4921 328.112 92.4952C328.112 92.5283 328.125 92.5601 328.149 92.5836C328.172 92.607 328.204 92.6202 328.237 92.6202C328.27 92.6202 328.302 92.607 328.326 92.5836C328.349 92.5601 328.362 92.5283 328.362 92.4952C328.362 92.4952 328.362 92.4891 328.362 92.4861C328.36 92.5176 328.346 92.5472 328.323 92.5687C328.299 92.5902 328.269 92.6021 328.237 92.602V92.602Z" fill="#72351C"/>
<path d="M328.166 92.7211C328.135 92.7152 328.107 92.6978 328.088 92.6723C328.07 92.6469 328.061 92.6153 328.065 92.584V92.592C328.059 92.6247 328.066 92.6583 328.085 92.6857C328.104 92.713 328.133 92.7317 328.165 92.7377C328.198 92.7437 328.231 92.7366 328.259 92.7177C328.286 92.6989 328.305 92.67 328.311 92.6374V92.6283C328.303 92.6595 328.284 92.6865 328.257 92.7037C328.23 92.721 328.197 92.7272 328.166 92.7211Z" fill="#72351C"/>
<path d="M328.069 93.0233C328.038 93.0174 328.01 93 327.992 92.9746C327.973 92.9492 327.964 92.9176 327.968 92.8862V92.8943C327.962 92.9269 327.969 92.9606 327.988 92.9879C328.007 93.0152 328.036 93.034 328.068 93.04C328.101 93.046 328.135 93.0388 328.162 93.02C328.189 93.0012 328.208 92.9723 328.214 92.9397V92.9306C328.206 92.9617 328.187 92.9887 328.16 93.006C328.133 93.0232 328.1 93.0294 328.069 93.0233V93.0233Z" fill="#72351C"/>
<path d="M328.237 92.5354C328.205 92.5355 328.175 92.5234 328.152 92.5017C328.128 92.48 328.114 92.4502 328.112 92.4185C328.112 92.4185 328.112 92.4245 328.112 92.4275C328.112 92.4607 328.125 92.4925 328.149 92.5159C328.172 92.5394 328.204 92.5525 328.237 92.5525C328.27 92.5525 328.302 92.5394 328.326 92.5159C328.349 92.4925 328.362 92.4607 328.362 92.4275C328.362 92.4275 328.362 92.4215 328.362 92.4185C328.36 92.4502 328.346 92.48 328.323 92.5017C328.3 92.5234 328.269 92.5355 328.237 92.5354V92.5354Z" fill="#72351C"/>
<path d="M328.063 92.468C328.063 92.4362 328.075 92.4057 328.097 92.3826C328.119 92.3596 328.149 92.3458 328.181 92.344H328.172C328.139 92.344 328.107 92.3572 328.083 92.3806C328.06 92.4041 328.047 92.4358 328.047 92.469C328.047 92.5022 328.06 92.534 328.083 92.5574C328.107 92.5808 328.139 92.594 328.172 92.594H328.181C328.149 92.5922 328.119 92.5781 328.097 92.5546C328.075 92.5312 328.063 92.5001 328.063 92.468V92.468Z" fill="#72351C"/>
<path opacity="0.1" d="M328.189 93.6475C328.202 93.7093 328.202 93.7732 328.189 93.835C328.189 93.835 328.172 93.9983 328.199 94.0265" fill="black"/>
<path opacity="0.1" d="M327.344 93.6858C327.357 93.7476 327.357 93.8115 327.344 93.8733C327.344 93.8733 327.327 94.0366 327.354 94.0649" fill="black"/>
<path opacity="0.1" d="M327.337 94.3561C327.364 94.3658 327.394 94.3658 327.421 94.3561C327.454 94.3461 327.489 94.3461 327.521 94.3561" fill="black"/>
<path opacity="0.1" d="M327.379 94.1103C327.478 94.115 327.576 94.0996 327.668 94.0649C327.668 94.0649 328.023 94.1516 328.123 94.0891" fill="black"/>
<path d="M327.272 95.6084H327.189C327.151 95.6084 327.121 95.6386 327.121 95.6759C327.121 95.7132 327.151 95.7435 327.189 95.7435H327.272C327.31 95.7435 327.34 95.7132 327.34 95.6759C327.34 95.6386 327.31 95.6084 327.272 95.6084Z" fill="#FDB797"/>
<path d="M327.122 95.6447L327.239 95.6396L327.34 95.6558H327.305L327.122 95.6447Z" fill="#F0E4E4"/>
<path d="M327.911 95.0791H328.028L328.128 95.0892H328.093L327.911 95.0791Z" fill="#F0E4E4"/>
<path d="M327.911 95.1033H328.028L328.128 95.1134H328.093L327.911 95.1033Z" fill="#F0E4E4"/>
<path d="M327.911 95.1284H328.028L328.128 95.1385H328.093L327.911 95.1284Z" fill="#F0E4E4"/>
<path d="M327.911 95.1526H328.028L328.128 95.1627H328.093L327.911 95.1526Z" fill="#F0E4E4"/>
<path d="M327.122 95.7383H327.239L327.34 95.7504H327.305L327.122 95.7383Z" fill="#F0E4E4"/>
<path d="M327.122 95.7263H327.239L327.34 95.7384H327.305L327.122 95.7263Z" fill="#F0E4E4"/>
<path d="M327.122 95.7141H327.239L327.34 95.7262H327.305L327.122 95.7141Z" fill="#F0E4E4"/>
<path d="M327.122 95.7021H327.239L327.34 95.7142H327.305L327.122 95.7021Z" fill="#F0E4E4"/>
<path d="M327.122 95.6264L327.239 95.6213L327.34 95.6375H327.305L327.122 95.6264Z" fill="#F0E4E4"/>
<path d="M327.122 95.6054L327.239 95.6003L327.34 95.6165H327.305L327.122 95.6054Z" fill="#F0E4E4"/>
<path opacity="0.1" d="M327.841 92.6313C327.83 92.7379 327.844 92.8456 327.881 92.9459C327.9 92.9946 327.908 93.0466 327.906 93.0987C327.903 93.1508 327.89 93.2018 327.866 93.2483C327.882 93.2519 327.898 93.2517 327.913 93.2479C327.929 93.244 327.943 93.2366 327.955 93.2261C327.98 93.2042 328.002 93.1787 328.019 93.1505C328.038 93.1275 328.052 93.1007 328.059 93.0719C328.062 93.0266 328.055 92.9812 328.039 92.9388C328.019 92.8616 328.005 92.7831 327.996 92.7039C327.99 92.6555 327.996 92.5164 327.942 92.5023C327.887 92.4882 327.851 92.591 327.841 92.6313Z" fill="black"/>
<path d="M327.848 92.6282C327.837 92.7347 327.851 92.8424 327.888 92.9427C327.907 92.9914 327.915 93.0435 327.913 93.0955C327.91 93.1476 327.897 93.1986 327.873 93.2452C327.889 93.2487 327.905 93.2486 327.92 93.2447C327.936 93.2409 327.95 93.2334 327.962 93.223C327.987 93.201 328.009 93.1756 328.027 93.1474C328.045 93.1244 328.059 93.0975 328.066 93.0687C328.069 93.0234 328.062 92.978 328.046 92.9357C328.026 92.8584 328.012 92.78 328.003 92.7008C327.997 92.6524 328.003 92.5132 327.949 92.4991C327.894 92.485 327.858 92.5868 327.848 92.6282Z" fill="#72351C"/>
<path opacity="0.1" d="M327.725 92.7028C327.749 92.728 327.754 92.7653 327.775 92.7936C327.792 92.8128 327.814 92.8278 327.839 92.8376C327.863 92.8473 327.889 92.8516 327.916 92.85C327.93 92.8493 327.944 92.8524 327.957 92.8591C327.979 92.8732 327.98 92.9055 327.994 92.9276C328.002 92.9357 328.011 92.9422 328.021 92.9466C328.031 92.951 328.042 92.9533 328.053 92.9533C328.064 92.9533 328.075 92.951 328.085 92.9466C328.096 92.9422 328.105 92.9357 328.112 92.9276C328.141 92.8929 328.157 92.849 328.158 92.8036C328.162 92.7537 328.162 92.7034 328.158 92.6534C328.156 92.5962 328.134 92.5416 328.094 92.5002C328.061 92.4757 328.023 92.4591 327.982 92.4518C327.927 92.4323 327.867 92.4277 327.81 92.4387C327.782 92.448 327.755 92.4612 327.731 92.478C327.697 92.5002 327.663 92.5227 327.63 92.5456C327.593 92.5718 327.522 92.6242 327.591 92.6524C327.634 92.6726 327.689 92.6635 327.725 92.7028Z" fill="black"/>
<path d="M327.732 92.6989C327.756 92.7241 327.761 92.7614 327.782 92.7897C327.799 92.8089 327.821 92.8239 327.846 92.8337C327.87 92.8434 327.896 92.8477 327.923 92.8461C327.937 92.8453 327.951 92.8485 327.964 92.8552C327.986 92.8693 327.987 92.9016 328.001 92.9237C328.009 92.9318 328.018 92.9383 328.028 92.9427C328.038 92.9471 328.049 92.9494 328.06 92.9494C328.071 92.9494 328.082 92.9471 328.092 92.9427C328.103 92.9383 328.112 92.9318 328.119 92.9237C328.148 92.889 328.164 92.8451 328.165 92.7997C328.17 92.7498 328.17 92.6995 328.165 92.6495C328.163 92.5923 328.141 92.5377 328.101 92.4963C328.068 92.4718 328.03 92.4552 327.989 92.4479C327.934 92.4284 327.874 92.4238 327.817 92.4348C327.789 92.4441 327.762 92.4573 327.738 92.4741C327.704 92.4963 327.67 92.5188 327.637 92.5416C327.6 92.5679 327.53 92.6203 327.598 92.6485C327.641 92.6687 327.699 92.6606 327.732 92.6989Z" fill="#72351C"/>
<path d="M327.918 95.0791H328.035L328.135 95.0892H328.102L327.918 95.0791Z" fill="#F0E4E4"/>
<path d="M327.918 95.1033H328.035L328.135 95.1134H328.102L327.918 95.1033Z" fill="#F0E4E4"/>
<path d="M327.918 95.1284H328.035L328.135 95.1385H328.102L327.918 95.1284Z" fill="#F0E4E4"/>
<path d="M327.918 95.1526H328.035L328.135 95.1627H328.102L327.918 95.1526Z" fill="#F0E4E4"/>
<path d="M327.867 96.4905H327.984L328.085 96.5006H328.05L327.867 96.4905Z" fill="#F0E4E4"/>
<path d="M327.867 96.5156H327.984L328.085 96.5257H328.05L327.867 96.5156Z" fill="#F0E4E4"/>
<path d="M327.867 96.5398H327.984L328.085 96.5499H328.05L327.867 96.5398Z" fill="#F0E4E4"/>
<path d="M327.867 96.564H327.984L328.085 96.574H328.05L327.867 96.564Z" fill="#F0E4E4"/>
<defs>
<linearGradient id="paint0_linear" x1="315.994" y1="125.796" x2="315.994" y2="102.635" gradientUnits="userSpaceOnUse">
<stop stop-color="#808080" stop-opacity="0.25"/>
<stop offset="0.54" stop-color="#808080" stop-opacity="0.12"/>
<stop offset="1" stop-color="#808080" stop-opacity="0.1"/>
</linearGradient>
<linearGradient id="paint1_linear" x1="32404.2" y1="24786.2" x2="32404.2" y2="64.2833" gradientUnits="userSpaceOnUse">
<stop stop-color="#808080" stop-opacity="0.25"/>
<stop offset="0.54" stop-color="#808080" stop-opacity="0.12"/>
<stop offset="1" stop-color="#808080" stop-opacity="0.1"/>
</linearGradient>
<linearGradient id="paint2_linear" x1="1732.46" y1="2750.18" x2="1732.46" y2="2442.2" gradientUnits="userSpaceOnUse">
<stop stop-color="#808080" stop-opacity="0.25"/>
<stop offset="0.54" stop-color="#808080" stop-opacity="0.12"/>
<stop offset="1" stop-color="#808080" stop-opacity="0.1"/>
</linearGradient>
</defs>
</svg>
