<svg width="380" height="190" viewBox="0 0 380 190" fill="none" xmlns="http://www.w3.org/2000/svg">
<rect width="380" height="190" fill="black" fill-opacity="0"/>
<line x1="271.811" y1="138.811" x2="234.761" y2="175.861" stroke="black" stroke-width="3"/>
<circle cx="316.667" cy="95" r="63.3333" fill="#658BEB"/>
<line x1="190" y1="93.5" x2="253.333" y2="93.5" stroke="black" stroke-width="3"/>
<path fill-rule="evenodd" clip-rule="evenodd" d="M190 95C190 147.467 147.467 190 95 190C42.533 190 0 147.467 0 95C0 42.533 42.533 0 95 0C147.467 0 190 42.533 190 95ZM144.717 119.806L94.8416 69.8777H144.717L94.8416 19.95L44.9666 69.8777L94.8416 119.806L44.9666 119.805L94.8416 169.733L144.717 119.806Z" fill="#658BEB"/>
<rect width="81.0667" height="70.3" fill="black" fill-opacity="0" transform="translate(276.133 59.85)"/>
<path d="M357.2 91.2573H318.781V130.15H357.2V91.2573Z" fill="url(#paint0_linear)"/>
<path d="M356.678 97.4117H319.304V129.102H356.678V97.4117Z" fill="white"/>
<path d="M356.678 91.6506H319.304V97.4126H356.678V91.6506Z" fill="#BDBDBD"/>
<path d="M322.179 95.9712C322.973 95.9712 323.616 95.3263 323.616 94.5307C323.616 93.7351 322.973 93.0902 322.179 93.0902C321.385 93.0902 320.741 93.7351 320.741 94.5307C320.741 95.3263 321.385 95.9712 322.179 95.9712Z" fill="#FF5252"/>
<path d="M325.838 95.9712C326.632 95.9712 327.275 95.3263 327.275 94.5307C327.275 93.7351 326.632 93.0902 325.838 93.0902C325.044 93.0902 324.4 93.7351 324.4 94.5307C324.4 95.3263 325.044 95.9712 325.838 95.9712Z" fill="#FFFF00"/>
<path d="M329.497 95.9712C330.291 95.9712 330.934 95.3263 330.934 94.5307C330.934 93.7351 330.291 93.0902 329.497 93.0902C328.703 93.0902 328.059 93.7351 328.059 94.5307C328.059 95.3263 328.703 95.9712 329.497 95.9712Z" fill="#69F0AE"/>
<path d="M353.386 104.83H322.595V106.764H353.386V104.83Z" fill="#E0E0E0"/>
<path d="M353.386 109.803H322.595V111.738H353.386V109.803Z" fill="#E0E0E0"/>
<path d="M353.386 114.777H322.595V116.711H353.386V114.777Z" fill="#E0E0E0"/>
<path d="M353.386 119.75H322.595V121.685H353.386V119.75Z" fill="#E0E0E0"/>
<path d="M334.957 109.363C336.937 109.363 338.542 107.755 338.542 105.771C338.542 103.787 336.937 102.179 334.957 102.179C332.977 102.179 331.373 103.787 331.373 105.771C331.373 107.755 332.977 109.363 334.957 109.363Z" fill="url(#paint1_linear)"/>
<path d="M343.781 114.337C345.761 114.337 347.365 112.728 347.365 110.745C347.365 108.761 345.761 107.153 343.781 107.153C341.801 107.153 340.196 108.761 340.196 110.745C340.196 112.728 341.801 114.337 343.781 114.337Z" fill="url(#paint2_linear)"/>
<path d="M339.369 119.31C341.349 119.31 342.954 117.702 342.954 115.718C342.954 113.734 341.349 112.126 339.369 112.126C337.389 112.126 335.784 113.734 335.784 115.718C335.784 117.702 337.389 119.31 339.369 119.31Z" fill="url(#paint3_linear)"/>
<path d="M351.685 124.284C353.665 124.284 355.27 122.676 355.27 120.692C355.27 118.708 353.665 117.1 351.685 117.1C349.705 117.1 348.101 118.708 348.101 120.692C348.101 122.676 349.705 124.284 351.685 124.284Z" fill="url(#paint4_linear)"/>
<path d="M334.957 108.811C336.632 108.811 337.99 107.45 337.99 105.771C337.99 104.092 336.632 102.732 334.957 102.732C333.282 102.732 331.924 104.092 331.924 105.771C331.924 107.45 333.282 108.811 334.957 108.811Z" fill="#6257E5"/>
<path d="M343.781 113.784C345.456 113.784 346.814 112.423 346.814 110.745C346.814 109.066 345.456 107.705 343.781 107.705C342.106 107.705 340.748 109.066 340.748 110.745C340.748 112.423 342.106 113.784 343.781 113.784Z" fill="#6257E5"/>
<path d="M339.369 118.758C341.044 118.758 342.402 117.397 342.402 115.718C342.402 114.04 341.044 112.679 339.369 112.679C337.694 112.679 336.336 114.04 336.336 115.718C336.336 117.397 337.694 118.758 339.369 118.758Z" fill="#6257E5"/>
<path d="M351.685 123.731C353.36 123.731 354.718 122.371 354.718 120.692C354.718 119.013 353.36 117.653 351.685 117.653C350.01 117.653 348.652 119.013 348.652 120.692C348.652 122.371 350.01 123.731 351.685 123.731Z" fill="#69F0AE"/>
<path d="M314.553 59.85H276.133V98.7426H314.553V59.85Z" fill="url(#paint5_linear)"/>
<path d="M314.031 66.0044H276.656V97.6945H314.031V66.0044Z" fill="white"/>
<path d="M314.031 60.2433H276.656V66.0053H314.031V60.2433Z" fill="#BDBDBD"/>
<path d="M279.531 64.5639C280.325 64.5639 280.969 63.9189 280.969 63.1234C280.969 62.3278 280.325 61.6829 279.531 61.6829C278.737 61.6829 278.094 62.3278 278.094 63.1234C278.094 63.9189 278.737 64.5639 279.531 64.5639Z" fill="#FF5252"/>
<path d="M283.19 64.5639C283.984 64.5639 284.628 63.9189 284.628 63.1234C284.628 62.3278 283.984 61.6829 283.19 61.6829C282.397 61.6829 281.753 62.3278 281.753 63.1234C281.753 63.9189 282.397 64.5639 283.19 64.5639Z" fill="#FFFF00"/>
<path d="M286.849 64.5639C287.643 64.5639 288.287 63.9189 288.287 63.1234C288.287 62.3278 287.643 61.6829 286.849 61.6829C286.055 61.6829 285.412 62.3278 285.412 63.1234C285.412 63.9189 286.055 64.5639 286.849 64.5639Z" fill="#69F0AE"/>
<path d="M288.348 73.6001H284.831V90.0996H288.348V73.6001Z" fill="#E0E0E0"/>
<path d="M294.183 73.6001H290.667V90.0996H294.183V73.6001Z" fill="#E0E0E0"/>
<path d="M300.018 73.6001H296.501V90.0996H300.018V73.6001Z" fill="#E0E0E0"/>
<path d="M305.852 73.6001H302.336V90.0996H305.852V73.6001Z" fill="#E0E0E0"/>
<path d="M288.348 81.8499H284.831V90.0996H288.348V81.8499Z" fill="#2196F3"/>
<g opacity="0.4">
<rect width="3.51657" height="3.60402" fill="black" fill-opacity="0" transform="translate(284.831 78.4052)"/>
<path opacity="0.4" d="M288.348 78.4052H284.831V82.0092H288.348V78.4052Z" fill="#2196F3"/>
</g>
<path opacity="0.4" d="M294.215 80.1128H290.699V83.7168H294.215V80.1128Z" fill="#69F0AE"/>
<path opacity="0.4" d="M305.854 80.3016H302.338V83.9057H305.854V80.3016Z" fill="#FFFF00"/>
<path d="M294.183 83.6404H290.667V90.0987H294.183V83.6404Z" fill="#69F0AE"/>
<path d="M300.018 80.6479H296.501V90.0996H300.018V80.6479Z" fill="#6257E5"/>
<path opacity="0.4" d="M300.018 77.3645H296.501V80.648H300.018V77.3645Z" fill="#6257E5"/>
<path d="M305.852 83.9324H302.336V90.0996H305.852V83.9324Z" fill="#FFFF00"/>
<path d="M332.568 74.6281H294.148V113.521H332.568V74.6281Z" fill="url(#paint6_linear)"/>
<path d="M332.045 80.7825H294.671V112.473H332.045V80.7825Z" fill="white"/>
<path d="M332.045 75.0204H294.671V80.7824H332.045V75.0204Z" fill="#BDBDBD"/>
<path d="M297.546 79.3418C298.34 79.3418 298.984 78.6969 298.984 77.9013C298.984 77.1058 298.34 76.4608 297.546 76.4608C296.752 76.4608 296.109 77.1058 296.109 77.9013C296.109 78.6969 296.752 79.3418 297.546 79.3418Z" fill="#FF5252"/>
<path d="M301.205 79.3418C301.999 79.3418 302.643 78.6969 302.643 77.9013C302.643 77.1058 301.999 76.4608 301.205 76.4608C300.411 76.4608 299.768 77.1058 299.768 77.9013C299.768 78.6969 300.411 79.3418 301.205 79.3418Z" fill="#FFFF00"/>
<path d="M304.864 79.3418C305.658 79.3418 306.302 78.6969 306.302 77.9013C306.302 77.1058 305.658 76.4608 304.864 76.4608C304.07 76.4608 303.427 77.1058 303.427 77.9013C303.427 78.6969 304.07 79.3418 304.864 79.3418Z" fill="#69F0AE"/>
<path d="M313.358 85.7579H313.292V107.494H313.358C316.234 107.494 318.993 106.349 321.027 104.311C323.061 102.273 324.203 99.5086 324.203 96.6262C324.203 93.7437 323.061 90.9794 321.027 88.9412C318.993 86.903 316.234 85.7579 313.358 85.7579Z" fill="#2196F3"/>
<path d="M313.293 85.7596C310.438 85.7768 307.706 86.9208 305.688 88.9437C303.67 90.9665 302.529 93.705 302.512 96.5653H313.293V85.7596Z" fill="#69F0AE"/>
<path d="M301.925 96.6776C301.925 96.7006 301.925 96.7227 301.925 96.7458C301.925 99.7417 303.108 102.616 305.216 104.741C307.323 106.865 310.184 108.068 313.174 108.086V96.6776H301.925Z" fill="url(#paint7_linear)"/>
<path d="M302.252 96.8231C302.252 96.8452 302.252 96.8664 302.252 96.8885C302.252 99.7598 303.386 102.514 305.406 104.551C307.426 106.587 310.168 107.74 313.033 107.757V96.8231H302.252Z" fill="#6257E5"/>
<defs>
<linearGradient id="paint0_linear" x1="337.99" y1="130.15" x2="337.99" y2="91.2573" gradientUnits="userSpaceOnUse">
<stop stop-color="#808080" stop-opacity="0.25"/>
<stop offset="0.54" stop-color="#808080" stop-opacity="0.12"/>
<stop offset="1" stop-color="#808080" stop-opacity="0.1"/>
</linearGradient>
<linearGradient id="paint1_linear" x1="4919.64" y1="3964.2" x2="4919.64" y2="3403.84" gradientUnits="userSpaceOnUse">
<stop stop-color="#808080" stop-opacity="0.25"/>
<stop offset="0.54" stop-color="#808080" stop-opacity="0.12"/>
<stop offset="1" stop-color="#808080" stop-opacity="0.1"/>
</linearGradient>
<linearGradient id="paint2_linear" x1="5616.7" y1="4357.12" x2="5616.7" y2="3796.76" gradientUnits="userSpaceOnUse">
<stop stop-color="#808080" stop-opacity="0.25"/>
<stop offset="0.54" stop-color="#808080" stop-opacity="0.12"/>
<stop offset="1" stop-color="#808080" stop-opacity="0.1"/>
</linearGradient>
<linearGradient id="paint3_linear" x1="5268.17" y1="4750.03" x2="5268.17" y2="4189.67" gradientUnits="userSpaceOnUse">
<stop stop-color="#808080" stop-opacity="0.25"/>
<stop offset="0.54" stop-color="#808080" stop-opacity="0.12"/>
<stop offset="1" stop-color="#808080" stop-opacity="0.1"/>
</linearGradient>
<linearGradient id="paint4_linear" x1="6241.15" y1="5142.94" x2="6241.15" y2="4582.59" gradientUnits="userSpaceOnUse">
<stop stop-color="#808080" stop-opacity="0.25"/>
<stop offset="0.54" stop-color="#808080" stop-opacity="0.12"/>
<stop offset="1" stop-color="#808080" stop-opacity="0.1"/>
</linearGradient>
<linearGradient id="paint5_linear" x1="8305.78" y1="16483" x2="8305.78" y2="59.85" gradientUnits="userSpaceOnUse">
<stop stop-color="#808080" stop-opacity="0.25"/>
<stop offset="0.54" stop-color="#808080" stop-opacity="0.12"/>
<stop offset="1" stop-color="#808080" stop-opacity="0.1"/>
</linearGradient>
<linearGradient id="paint6_linear" x1="15854" y1="22737.8" x2="15854" y2="6314.95" gradientUnits="userSpaceOnUse">
<stop stop-color="#808080" stop-opacity="0.25"/>
<stop offset="0.54" stop-color="#808080" stop-opacity="0.12"/>
<stop offset="1" stop-color="#808080" stop-opacity="0.1"/>
</linearGradient>
<linearGradient id="paint7_linear" x1="5935.5" y1="6851.77" x2="5935.5" y2="5438.55" gradientUnits="userSpaceOnUse">
<stop stop-color="#808080" stop-opacity="0.25"/>
<stop offset="0.54" stop-color="#808080" stop-opacity="0.12"/>
<stop offset="1" stop-color="#808080" stop-opacity="0.1"/>
</linearGradient>
</defs>
</svg>
