<svg width="380" height="190" viewBox="0 0 380 190" fill="none" xmlns="http://www.w3.org/2000/svg">
<rect width="380" height="190" fill="black" fill-opacity="0"/>
<rect width="380" height="190" fill="black" fill-opacity="0"/>
<line x1="108.189" y1="138.494" x2="145.239" y2="175.544" stroke="black" stroke-width="3"/>
<circle cx="63.3333" cy="95" r="63.3333" fill="#658BEB"/>
<line x1="126.667" y1="93.5" x2="190" y2="93.5" stroke="black" stroke-width="3"/>
<path fill-rule="evenodd" clip-rule="evenodd" d="M380 95C380 147.467 337.467 190 285 190C232.533 190 190 147.467 190 95C190 42.533 232.533 0 285 0C337.467 0 380 42.533 380 95ZM334.717 119.806L284.842 69.8777H334.717L284.842 19.95L234.967 69.8777L284.842 119.806H234.966L284.841 169.733L334.717 119.806Z" fill="#658BEB"/>
<rect width="74.7333" height="62.3834" fill="black" fill-opacity="0" transform="translate(26 64)"/>
<path d="M59.9772 64H26V101.914H59.9772V64Z" fill="url(#paint0_linear)"/>
<path d="M59.4153 89.314H26.5615V101.089H59.4153V89.314Z" fill="white"/>
<path d="M30.5314 92.1067H29.2583V98.1403H30.5314V92.1067Z" fill="#64FFDA"/>
<g opacity="0.7">
<rect width="1.27311" height="6.0336" fill="black" fill-opacity="0" transform="translate(31.7715 92.1067)"/>
<path opacity="0.7" d="M33.0446 92.1067H31.7715V98.1403H33.0446V92.1067Z" fill="#64FFDA"/>
</g>
<g opacity="0.6">
<rect width="1.27311" height="6.0336" fill="black" fill-opacity="0" transform="translate(34.2852 92.1067)"/>
<path opacity="0.6" d="M35.5583 92.1067H34.2852V98.1403H35.5583V92.1067Z" fill="#64FFDA"/>
</g>
<g opacity="0.5">
<rect width="1.27311" height="6.0336" fill="black" fill-opacity="0" transform="translate(36.7983 92.1067)"/>
<path opacity="0.5" d="M38.0715 92.1067H36.7983V98.1403H38.0715V92.1067Z" fill="#64FFDA"/>
</g>
<g opacity="0.5">
<rect width="1.27311" height="6.0336" fill="black" fill-opacity="0" transform="translate(39.3115 92.1067)"/>
<path opacity="0.5" d="M40.5846 92.1067H39.3115V98.1403H40.5846V92.1067Z" fill="#64FFDA"/>
</g>
<g opacity="0.4">
<rect width="1.27311" height="6.0336" fill="black" fill-opacity="0" transform="translate(41.8247 92.1067)"/>
<path opacity="0.4" d="M43.0978 92.1067H41.8247V98.1403H43.0978V92.1067Z" fill="#64FFDA"/>
</g>
<g opacity="0.3">
<rect width="1.27311" height="6.0336" fill="black" fill-opacity="0" transform="translate(44.3389 92.1067)"/>
<path opacity="0.3" d="M45.612 92.1067H44.3389V98.1403H45.612V92.1067Z" fill="#64FFDA"/>
</g>
<path d="M54.7644 98.1559C56.461 98.1559 57.8364 96.7808 57.8364 95.0845C57.8364 93.3883 56.461 92.0132 54.7644 92.0132C53.0678 92.0132 51.6924 93.3883 51.6924 95.0845C51.6924 96.7808 53.0678 98.1559 54.7644 98.1559Z" fill="black"/>
<path d="M59.4153 77.0806H26.5615V88.8552H59.4153V77.0806Z" fill="white"/>
<path d="M30.5314 79.8733H29.2583V85.9069H30.5314V79.8733Z" fill="#64FFDA"/>
<g opacity="0.7">
<rect width="1.27311" height="6.0336" fill="black" fill-opacity="0" transform="translate(31.7715 79.8733)"/>
<path opacity="0.7" d="M33.0446 79.8733H31.7715V85.9069H33.0446V79.8733Z" fill="#64FFDA"/>
</g>
<g opacity="0.6">
<rect width="1.27311" height="6.0336" fill="black" fill-opacity="0" transform="translate(34.2852 79.8733)"/>
<path opacity="0.6" d="M35.5583 79.8733H34.2852V85.9069H35.5583V79.8733Z" fill="#64FFDA"/>
</g>
<g opacity="0.5">
<rect width="1.27311" height="6.0336" fill="black" fill-opacity="0" transform="translate(36.7983 79.8733)"/>
<path opacity="0.5" d="M38.0715 79.8733H36.7983V85.9069H38.0715V79.8733Z" fill="#64FFDA"/>
</g>
<g opacity="0.5">
<rect width="1.27311" height="6.0336" fill="black" fill-opacity="0" transform="translate(39.3115 79.8733)"/>
<path opacity="0.5" d="M40.5846 79.8733H39.3115V85.9069H40.5846V79.8733Z" fill="#64FFDA"/>
</g>
<g opacity="0.4">
<rect width="1.27311" height="6.0336" fill="black" fill-opacity="0" transform="translate(41.8247 79.8733)"/>
<path opacity="0.4" d="M43.0978 79.8733H41.8247V85.9069H43.0978V79.8733Z" fill="#64FFDA"/>
</g>
<g opacity="0.3">
<rect width="1.27311" height="6.0336" fill="black" fill-opacity="0" transform="translate(44.3389 79.8733)"/>
<path opacity="0.3" d="M45.612 79.8733H44.3389V85.9069H45.612V79.8733Z" fill="#64FFDA"/>
</g>
<path d="M54.7644 85.9235C56.461 85.9235 57.8364 84.5484 57.8364 82.8521C57.8364 81.1559 56.461 79.7808 54.7644 79.7808C53.0678 79.7808 51.6924 81.1559 51.6924 82.8521C51.6924 84.5484 53.0678 85.9235 54.7644 85.9235Z" fill="black"/>
<path d="M59.4153 64.8472H26.5615V76.6218H59.4153V64.8472Z" fill="white"/>
<path d="M30.5314 67.6406H29.2583V73.6742H30.5314V67.6406Z" fill="#64FFDA"/>
<g opacity="0.7">
<rect width="1.27311" height="6.0336" fill="black" fill-opacity="0" transform="translate(31.7715 67.6406)"/>
<path opacity="0.7" d="M33.0446 67.6406H31.7715V73.6742H33.0446V67.6406Z" fill="#64FFDA"/>
</g>
<g opacity="0.6">
<rect width="1.27311" height="6.0336" fill="black" fill-opacity="0" transform="translate(34.2852 67.6406)"/>
<path opacity="0.6" d="M35.5583 67.6406H34.2852V73.6742H35.5583V67.6406Z" fill="#64FFDA"/>
</g>
<g opacity="0.5">
<rect width="1.27311" height="6.0336" fill="black" fill-opacity="0" transform="translate(36.7983 67.6406)"/>
<path opacity="0.5" d="M38.0715 67.6406H36.7983V73.6742H38.0715V67.6406Z" fill="#64FFDA"/>
</g>
<g opacity="0.5">
<rect width="1.27311" height="6.0336" fill="black" fill-opacity="0" transform="translate(39.3115 67.6406)"/>
<path opacity="0.5" d="M40.5846 67.6406H39.3115V73.6742H40.5846V67.6406Z" fill="#64FFDA"/>
</g>
<g opacity="0.4">
<rect width="1.27311" height="6.0336" fill="black" fill-opacity="0" transform="translate(41.8247 67.6406)"/>
<path opacity="0.4" d="M43.0978 67.6406H41.8247V73.6742H43.0978V67.6406Z" fill="#64FFDA"/>
</g>
<g opacity="0.3">
<rect width="1.27311" height="6.0336" fill="black" fill-opacity="0" transform="translate(44.3389 67.6406)"/>
<path opacity="0.3" d="M45.612 67.6406H44.3389V73.6742H45.612V67.6406Z" fill="#64FFDA"/>
</g>
<path d="M54.7639 73.9297C56.5929 73.9297 58.0756 72.4473 58.0756 70.6187C58.0756 68.79 56.5929 67.3076 54.7639 67.3076C52.9349 67.3076 51.4521 68.79 51.4521 70.6187C51.4521 72.4473 52.9349 73.9297 54.7639 73.9297Z" fill="url(#paint1_linear)"/>
<path d="M54.7639 86.2449C56.5929 86.2449 58.0756 84.7625 58.0756 82.9338C58.0756 81.1052 56.5929 79.6228 54.7639 79.6228C52.9349 79.6228 51.4521 81.1052 51.4521 82.9338C51.4521 84.7625 52.9349 86.2449 54.7639 86.2449Z" fill="#6257E5"/>
<path d="M54.7639 98.4776C56.5929 98.4776 58.0756 96.9952 58.0756 95.1665C58.0756 93.3379 56.5929 91.8555 54.7639 91.8555C52.9349 91.8555 51.4521 93.3379 51.4521 95.1665C51.4521 96.9952 52.9349 98.4776 54.7639 98.4776Z" fill="#6257E5"/>
<path d="M54.7644 73.6901C56.461 73.6901 57.8364 72.315 57.8364 70.6187C57.8364 68.9225 56.461 67.5474 54.7644 67.5474C53.0678 67.5474 51.6924 68.9225 51.6924 70.6187C51.6924 72.315 53.0678 73.6901 54.7644 73.6901Z" fill="#6257E5"/>
<rect width="18.9313" height="14.4641" fill="black" fill-opacity="0" transform="translate(64.1108 77.1143)"/>
<path opacity="0.7" d="M64.1108 77.1143H64.6069" stroke="black" stroke-width="0.8" stroke-linecap="round" stroke-linejoin="round"/>
<path opacity="0.7" d="M67.3662 77.1143H81.1662" stroke="black" stroke-width="0.8" stroke-linecap="round" stroke-linejoin="round" stroke-dasharray="12.52 33.38"/>
<path opacity="0.7" d="M82.5459 77.1143H83.0419V77.6102" stroke="black" stroke-width="0.8" stroke-linecap="round" stroke-linejoin="round"/>
<path opacity="0.7" d="M83.042 80.2393V89.7682" stroke="black" stroke-width="0.8" stroke-linecap="round" stroke-linejoin="round" stroke-dasharray="11.93 31.8"/>
<path opacity="0.7" d="M83.042 91.0824V91.5783" stroke="black" stroke-width="0.8" stroke-linecap="round" stroke-linejoin="round"/>
<rect width="18.9314" height="10.6249" fill="black" fill-opacity="0" transform="translate(37.4565 103.931)"/>
<path opacity="0.7" d="M56.3881 114.556L55.8921 114.554" stroke="black" stroke-width="0.8" stroke-linecap="round" stroke-linejoin="round"/>
<path opacity="0.7" d="M53.1322 114.54L39.333 114.474" stroke="black" stroke-width="0.8" stroke-linecap="round" stroke-linejoin="round" stroke-dasharray="12.52 33.38"/>
<path opacity="0.7" d="M37.9526 114.468L37.4565 114.466L37.4598 113.97" stroke="black" stroke-width="0.8" stroke-linecap="round" stroke-linejoin="round"/>
<path opacity="0.7" d="M37.4763 111.425L37.5143 105.7" stroke="black" stroke-width="0.8" stroke-linecap="round" stroke-linejoin="round" stroke-dasharray="11.55 30.79"/>
<path opacity="0.7" d="M37.5229 104.427L37.5263 103.931" stroke="black" stroke-width="0.8" stroke-linecap="round" stroke-linejoin="round"/>
<path d="M85.6224 116.109C85.6224 116.109 86.6078 122.761 92.4236 124.978H68.8628C74.6786 122.761 75.664 116.109 75.664 116.109H85.6224Z" fill="#E0E0E0"/>
<path d="M92.5275 124.978H68.7476V126.383H92.5275V124.978Z" fill="url(#paint2_linear)"/>
<path d="M92.4237 124.978H68.8662V126.063H92.4237V124.978Z" fill="#F5F5F5"/>
<path d="M99.8446 92.4639H61.6099C61.3742 92.4639 61.1481 92.5575 60.9815 92.7241C60.8148 92.8907 60.7212 93.1167 60.7212 93.3524V117.436C60.7212 117.718 60.8332 117.989 61.0326 118.188C61.232 118.387 61.5024 118.499 61.7843 118.499H99.6702C99.8098 118.499 99.948 118.472 100.077 118.418C100.206 118.365 100.323 118.287 100.422 118.188C100.521 118.089 100.599 117.972 100.652 117.843C100.706 117.714 100.733 117.576 100.733 117.436V93.3524C100.733 93.1167 100.64 92.8907 100.473 92.7241C100.306 92.5575 100.08 92.4639 99.8446 92.4639V92.4639Z" fill="url(#paint3_linear)"/>
<path d="M62.0908 92.8274H99.1979C99.4336 92.8274 99.6597 92.921 99.8263 93.0876C99.993 93.2543 100.087 93.4803 100.087 93.7159V114.335H61.2021V93.7167C61.202 93.6 61.2249 93.4844 61.2696 93.3765C61.3142 93.2686 61.3796 93.1705 61.4621 93.0879C61.5447 93.0053 61.6427 92.9398 61.7506 92.8951C61.8584 92.8504 61.9741 92.8274 62.0908 92.8274V92.8274Z" fill="white"/>
<path d="M99.0235 117.883H62.2653C61.9833 117.883 61.7129 117.771 61.5135 117.571C61.3142 117.372 61.2021 117.102 61.2021 116.82V114.335H100.087V116.82C100.087 117.102 99.9746 117.372 99.7753 117.571C99.5759 117.771 99.3055 117.883 99.0235 117.883Z" fill="#F5F5F5"/>
<path d="M98.3128 94.5698H63.1245V111.932H98.3128V94.5698Z" fill="black"/>
<path opacity="0.2" d="M64.5168 95.7219H98.3353V94.564H63.147V111.926H64.5168V95.7219Z" fill="white"/>
<defs>
<linearGradient id="paint0_linear" x1="42.9886" y1="101.914" x2="42.9886" y2="64" gradientUnits="userSpaceOnUse">
<stop stop-color="#808080" stop-opacity="0.25"/>
<stop offset="0.54" stop-color="#808080" stop-opacity="0.12"/>
<stop offset="1" stop-color="#808080" stop-opacity="0.1"/>
</linearGradient>
<linearGradient id="paint1_linear" x1="2356.03" y1="862.885" x2="2356.03" y2="332.324" gradientUnits="userSpaceOnUse">
<stop stop-color="#808080" stop-opacity="0.25"/>
<stop offset="0.54" stop-color="#808080" stop-opacity="0.12"/>
<stop offset="1" stop-color="#808080" stop-opacity="0.1"/>
</linearGradient>
<linearGradient id="paint2_linear" x1="15785.1" y1="1185.49" x2="15785.1" y2="1161.61" gradientUnits="userSpaceOnUse">
<stop stop-color="#808080" stop-opacity="0.25"/>
<stop offset="0.54" stop-color="#808080" stop-opacity="0.12"/>
<stop offset="1" stop-color="#808080" stop-opacity="0.1"/>
</linearGradient>
<linearGradient id="paint3_linear" x1="32470.5" y1="19150.4" x2="32470.5" y2="10949.2" gradientUnits="userSpaceOnUse">
<stop stop-color="#808080" stop-opacity="0.25"/>
<stop offset="0.54" stop-color="#808080" stop-opacity="0.12"/>
<stop offset="1" stop-color="#808080" stop-opacity="0.1"/>
</linearGradient>
</defs>
</svg>
