<svg width="35" height="53" viewBox="0 0 35 53" fill="none" xmlns="http://www.w3.org/2000/svg">
<rect width="35" height="53" fill="black" fill-opacity="0"/>
<path fill-rule="evenodd" clip-rule="evenodd" d="M17.5 6.10352e-05C14.9503 7.5827 14.8231 11.485 17.5 17.6667H35L17.5 6.10352e-05Z" fill="#6257E5"/>
<path fill-rule="evenodd" clip-rule="evenodd" d="M17.448 17.6667C14.6111 24.1577 15.1539 28.0964 17.5 35.3333C24.1425 37.7979 27.9407 37.56 34.9479 35.3333L17.448 17.6667Z" fill="#6376E8"/>
<path fill-rule="evenodd" clip-rule="evenodd" d="M0 17.6667C6.83417 19.6155 10.6658 19.7504 17.5 17.6667V1.17315e-05L0 17.6667Z" fill="#6261E6"/>
<path fill-rule="evenodd" clip-rule="evenodd" d="M17.4999 35.3333L17.5 17.6667H0L17.4999 35.3333Z" fill="#636BE7"/>
<path fill-rule="evenodd" clip-rule="evenodd" d="M17.4999 53C18.8636 46.1008 18.9907 42.2326 17.5 35.3334H-3.94201e-06L17.4999 53Z" fill="#658BEB"/>
<path fill-rule="evenodd" clip-rule="evenodd" d="M35 35.3333H17.5V52.9999L35 35.3333Z" fill="#6480E9"/>
</svg>
