<svg width="380" height="190" viewBox="0 0 380 190" fill="none" xmlns="http://www.w3.org/2000/svg">
<rect width="380" height="190" fill="black" fill-opacity="0"/>
<rect width="380" height="190" fill="black" fill-opacity="0"/>
<circle cx="63.3333" cy="95.0001" r="63.3333" transform="scale(-1 1)" fill="#658BEB"/>
<rect width="354.033" height="190" fill="black" fill-opacity="0" transform="translate(25.9667)"/>
<line x1="108.189" y1="138.811" x2="145.239" y2="175.861" stroke="black" stroke-width="3"/>
<line x1="190" y1="93.5" x2="126.667" y2="93.5" stroke="black" stroke-width="3"/>
<path fill-rule="evenodd" clip-rule="evenodd" d="M190 95C190 147.467 232.533 190 285 190C337.467 190 380 147.467 380 95C380 42.533 337.467 0 285 0C232.533 0 190 42.533 190 95ZM334.717 120.439L284.842 70.5111H334.717L284.842 20.5834L234.967 70.5111L284.842 120.439H234.967L284.842 170.367L334.717 120.439Z" fill="#658BEB"/>
<rect width="74.7333" height="62.3833" fill="black" fill-opacity="0" transform="translate(25.9667 63.0166)"/>
<path d="M59.9439 63.0166H25.9667V100.931H59.9439V63.0166Z" fill="url(#paint0_linear)"/>
<path d="M59.3817 88.3303H26.528V100.105H59.3817V88.3303Z" fill="white"/>
<path d="M30.4978 91.1233H29.2247V97.1569H30.4978V91.1233Z" fill="#64FFDA"/>
<g opacity="0.7">
<rect width="1.27311" height="6.0336" fill="black" fill-opacity="0" transform="translate(31.7379 91.1233)"/>
<path opacity="0.7" d="M33.011 91.1233H31.7379V97.1569H33.011V91.1233Z" fill="#64FFDA"/>
</g>
<g opacity="0.6">
<rect width="1.27311" height="6.0336" fill="black" fill-opacity="0" transform="translate(34.2518 91.1233)"/>
<path opacity="0.6" d="M35.5249 91.1233H34.2518V97.1569H35.5249V91.1233Z" fill="#64FFDA"/>
</g>
<g opacity="0.5">
<rect width="1.27311" height="6.0336" fill="black" fill-opacity="0" transform="translate(36.765 91.1233)"/>
<path opacity="0.5" d="M38.0381 91.1233H36.765V97.1569H38.0381V91.1233Z" fill="#64FFDA"/>
</g>
<g opacity="0.5">
<rect width="1.27311" height="6.0336" fill="black" fill-opacity="0" transform="translate(39.2782 91.1233)"/>
<path opacity="0.5" d="M40.5513 91.1233H39.2782V97.1569H40.5513V91.1233Z" fill="#64FFDA"/>
</g>
<g opacity="0.4">
<rect width="1.27311" height="6.0336" fill="black" fill-opacity="0" transform="translate(41.7913 91.1233)"/>
<path opacity="0.4" d="M43.0644 91.1233H41.7913V97.1569H43.0644V91.1233Z" fill="#64FFDA"/>
</g>
<g opacity="0.3">
<rect width="1.27311" height="6.0336" fill="black" fill-opacity="0" transform="translate(44.3053 91.1233)"/>
<path opacity="0.3" d="M45.5784 91.1233H44.3053V97.1569H45.5784V91.1233Z" fill="#64FFDA"/>
</g>
<path d="M54.7307 97.1725C56.4273 97.1725 57.8027 95.7974 57.8027 94.1011C57.8027 92.4049 56.4273 91.0298 54.7307 91.0298C53.0341 91.0298 51.6587 92.4049 51.6587 94.1011C51.6587 95.7974 53.0341 97.1725 54.7307 97.1725Z" fill="black"/>
<path d="M59.3817 76.0972H26.528V87.8718H59.3817V76.0972Z" fill="white"/>
<path d="M30.4978 78.8899H29.2247V84.9235H30.4978V78.8899Z" fill="#64FFDA"/>
<g opacity="0.7">
<rect width="1.27311" height="6.0336" fill="black" fill-opacity="0" transform="translate(31.7379 78.8899)"/>
<path opacity="0.7" d="M33.011 78.8899H31.7379V84.9235H33.011V78.8899Z" fill="#64FFDA"/>
</g>
<g opacity="0.6">
<rect width="1.27311" height="6.0336" fill="black" fill-opacity="0" transform="translate(34.2518 78.8899)"/>
<path opacity="0.6" d="M35.5249 78.8899H34.2518V84.9235H35.5249V78.8899Z" fill="#64FFDA"/>
</g>
<g opacity="0.5">
<rect width="1.27311" height="6.0336" fill="black" fill-opacity="0" transform="translate(36.765 78.8899)"/>
<path opacity="0.5" d="M38.0381 78.8899H36.765V84.9235H38.0381V78.8899Z" fill="#64FFDA"/>
</g>
<g opacity="0.5">
<rect width="1.27311" height="6.0336" fill="black" fill-opacity="0" transform="translate(39.2782 78.8899)"/>
<path opacity="0.5" d="M40.5513 78.8899H39.2782V84.9235H40.5513V78.8899Z" fill="#64FFDA"/>
</g>
<g opacity="0.4">
<rect width="1.27311" height="6.0336" fill="black" fill-opacity="0" transform="translate(41.7913 78.8899)"/>
<path opacity="0.4" d="M43.0644 78.8899H41.7913V84.9235H43.0644V78.8899Z" fill="#64FFDA"/>
</g>
<g opacity="0.3">
<rect width="1.27311" height="6.0336" fill="black" fill-opacity="0" transform="translate(44.3053 78.8899)"/>
<path opacity="0.3" d="M45.5784 78.8899H44.3053V84.9235H45.5784V78.8899Z" fill="#64FFDA"/>
</g>
<path d="M54.7307 84.9401C56.4273 84.9401 57.8027 83.565 57.8027 81.8687C57.8027 80.1725 56.4273 78.7974 54.7307 78.7974C53.0341 78.7974 51.6587 80.1725 51.6587 81.8687C51.6587 83.565 53.0341 84.9401 54.7307 84.9401Z" fill="black"/>
<path d="M59.3817 63.8638H26.528V75.6384H59.3817V63.8638Z" fill="white"/>
<path d="M30.4978 66.6575H29.2247V72.6911H30.4978V66.6575Z" fill="#64FFDA"/>
<g opacity="0.7">
<rect width="1.27311" height="6.0336" fill="black" fill-opacity="0" transform="translate(31.7379 66.6575)"/>
<path opacity="0.7" d="M33.011 66.6575H31.7379V72.6911H33.011V66.6575Z" fill="#64FFDA"/>
</g>
<g opacity="0.6">
<rect width="1.27311" height="6.0336" fill="black" fill-opacity="0" transform="translate(34.2518 66.6575)"/>
<path opacity="0.6" d="M35.5249 66.6575H34.2518V72.6911H35.5249V66.6575Z" fill="#64FFDA"/>
</g>
<g opacity="0.5">
<rect width="1.27311" height="6.0336" fill="black" fill-opacity="0" transform="translate(36.765 66.6575)"/>
<path opacity="0.5" d="M38.0381 66.6575H36.765V72.6911H38.0381V66.6575Z" fill="#64FFDA"/>
</g>
<g opacity="0.5">
<rect width="1.27311" height="6.0336" fill="black" fill-opacity="0" transform="translate(39.2782 66.6575)"/>
<path opacity="0.5" d="M40.5513 66.6575H39.2782V72.6911H40.5513V66.6575Z" fill="#64FFDA"/>
</g>
<g opacity="0.4">
<rect width="1.27311" height="6.0336" fill="black" fill-opacity="0" transform="translate(41.7913 66.6575)"/>
<path opacity="0.4" d="M43.0644 66.6575H41.7913V72.6911H43.0644V66.6575Z" fill="#64FFDA"/>
</g>
<g opacity="0.3">
<rect width="1.27311" height="6.0336" fill="black" fill-opacity="0" transform="translate(44.3053 66.6575)"/>
<path opacity="0.3" d="M45.5784 66.6575H44.3053V72.6911H45.5784V66.6575Z" fill="#64FFDA"/>
</g>
<path d="M54.7307 72.9463C56.5597 72.9463 58.0424 71.4639 58.0424 69.6353C58.0424 67.8066 56.5597 66.3242 54.7307 66.3242C52.9017 66.3242 51.4189 67.8066 51.4189 69.6353C51.4189 71.4639 52.9017 72.9463 54.7307 72.9463Z" fill="url(#paint1_linear)"/>
<path d="M54.7307 85.2615C56.5597 85.2615 58.0424 83.7791 58.0424 81.9504C58.0424 80.1218 56.5597 78.6394 54.7307 78.6394C52.9017 78.6394 51.4189 80.1218 51.4189 81.9504C51.4189 83.7791 52.9017 85.2615 54.7307 85.2615Z" fill="#6257E5"/>
<path d="M54.7307 97.4939C56.5597 97.4939 58.0424 96.0115 58.0424 94.1829C58.0424 92.3542 56.5597 90.8718 54.7307 90.8718C52.9017 90.8718 51.4189 92.3542 51.4189 94.1829C51.4189 96.0115 52.9017 97.4939 54.7307 97.4939Z" fill="#6257E5"/>
<path d="M54.7307 72.7067C56.4273 72.7067 57.8027 71.3316 57.8027 69.6353C57.8027 67.9391 56.4273 66.564 54.7307 66.564C53.0341 66.564 51.6587 67.9391 51.6587 69.6353C51.6587 71.3316 53.0341 72.7067 54.7307 72.7067Z" fill="#6257E5"/>
<g opacity="0.7">
<rect width="18.9313" height="14.4641" fill="black" fill-opacity="0" transform="translate(64.0774 76.1309)"/>
<path opacity="0.7" d="M64.0774 76.1309H64.5734" stroke="black" stroke-width="4" stroke-linecap="round" stroke-linejoin="round"/>
<path opacity="0.7" d="M67.3329 76.1309H81.1329" stroke="black" stroke-width="4" stroke-linecap="round" stroke-linejoin="round" stroke-dasharray="12.52 33.38"/>
<path opacity="0.7" d="M82.5127 76.1309H83.0087V76.6268" stroke="black" stroke-width="4" stroke-linecap="round" stroke-linejoin="round"/>
<path opacity="0.7" d="M83.0087 79.2559V88.7848" stroke="black" stroke-width="4" stroke-linecap="round" stroke-linejoin="round" stroke-dasharray="11.93 31.8"/>
<path opacity="0.7" d="M83.0087 90.0991V90.595" stroke="black" stroke-width="4" stroke-linecap="round" stroke-linejoin="round"/>
</g>
<g opacity="0.7">
<rect width="18.9314" height="10.6249" fill="black" fill-opacity="0" transform="translate(37.423 102.948)"/>
<path opacity="0.7" d="M56.3544 113.572L55.8584 113.57" stroke="black" stroke-width="4" stroke-linecap="round" stroke-linejoin="round"/>
<path opacity="0.7" d="M53.0988 113.557L39.2996 113.49" stroke="black" stroke-width="4" stroke-linecap="round" stroke-linejoin="round" stroke-dasharray="12.52 33.38"/>
<path opacity="0.7" d="M37.919 113.485L37.423 113.482L37.4263 112.986" stroke="black" stroke-width="4" stroke-linecap="round" stroke-linejoin="round"/>
<path opacity="0.7" d="M37.4429 110.442L37.4809 104.716" stroke="black" stroke-width="4" stroke-linecap="round" stroke-linejoin="round" stroke-dasharray="11.55 30.79"/>
<path opacity="0.7" d="M37.4894 103.443L37.4927 102.948" stroke="black" stroke-width="4" stroke-linecap="round" stroke-linejoin="round"/>
</g>
<path d="M85.5888 115.125C85.5888 115.125 86.5743 121.777 92.3901 123.995H68.8292C74.645 121.777 75.6305 115.125 75.6305 115.125H85.5888Z" fill="#E0E0E0"/>
<path d="M92.4941 123.995H68.7142V125.4H92.4941V123.995Z" fill="url(#paint2_linear)"/>
<path d="M92.3901 123.995H68.8325V125.079H92.3901V123.995Z" fill="#F5F5F5"/>
<path d="M99.8113 91.4802H61.5766C61.3409 91.4802 61.1148 91.5738 60.9482 91.7405C60.7815 91.9071 60.6879 92.1331 60.6879 92.3687V116.453C60.6879 116.735 60.7999 117.005 60.9992 117.204C61.1986 117.404 61.469 117.516 61.751 117.516H99.6368C99.7764 117.516 99.9147 117.488 100.044 117.435C100.173 117.381 100.29 117.303 100.389 117.204C100.487 117.106 100.566 116.988 100.619 116.859C100.672 116.731 100.7 116.592 100.7 116.453V92.3687C100.7 92.1331 100.606 91.9071 100.44 91.7405C100.273 91.5738 100.047 91.4802 99.8113 91.4802V91.4802Z" fill="url(#paint3_linear)"/>
<path d="M62.0578 91.844H99.1648C99.4005 91.844 99.6266 91.9376 99.7933 92.1042C99.9599 92.2709 100.054 92.4969 100.054 92.7325V113.352H61.1691V92.7333C61.169 92.6166 61.1919 92.501 61.2365 92.3931C61.2811 92.2852 61.3465 92.1871 61.4291 92.1045C61.5116 92.0219 61.6096 91.9564 61.7175 91.9117C61.8254 91.867 61.941 91.844 62.0578 91.844V91.844Z" fill="white"/>
<path d="M98.9904 116.899H62.2322C61.9502 116.899 61.6798 116.787 61.4805 116.588C61.2811 116.389 61.1691 116.118 61.1691 115.836V113.352H100.054V115.836C100.054 116.118 99.9415 116.389 99.7422 116.588C99.5428 116.787 99.2724 116.899 98.9904 116.899Z" fill="#F5F5F5"/>
<path d="M98.2794 93.5862H63.0911V110.948H98.2794V93.5862Z" fill="black"/>
<path opacity="0.2" d="M64.4832 94.7385H98.3017V93.5806H63.1134V110.942H64.4832V94.7385Z" fill="white"/>
<defs>
<linearGradient id="paint0_linear" x1="42.9553" y1="100.931" x2="42.9553" y2="63.0166" gradientUnits="userSpaceOnUse">
<stop stop-color="#808080" stop-opacity="0.25"/>
<stop offset="0.54" stop-color="#808080" stop-opacity="0.12"/>
<stop offset="1" stop-color="#808080" stop-opacity="0.1"/>
</linearGradient>
<linearGradient id="paint1_linear" x1="2356" y1="861.902" x2="2356" y2="331.34" gradientUnits="userSpaceOnUse">
<stop stop-color="#808080" stop-opacity="0.25"/>
<stop offset="0.54" stop-color="#808080" stop-opacity="0.12"/>
<stop offset="1" stop-color="#808080" stop-opacity="0.1"/>
</linearGradient>
<linearGradient id="paint2_linear" x1="15785.1" y1="1184.51" x2="15785.1" y2="1160.63" gradientUnits="userSpaceOnUse">
<stop stop-color="#808080" stop-opacity="0.25"/>
<stop offset="0.54" stop-color="#808080" stop-opacity="0.12"/>
<stop offset="1" stop-color="#808080" stop-opacity="0.1"/>
</linearGradient>
<linearGradient id="paint3_linear" x1="32470.5" y1="19149.4" x2="32470.5" y2="10948.2" gradientUnits="userSpaceOnUse">
<stop stop-color="#808080" stop-opacity="0.25"/>
<stop offset="0.54" stop-color="#808080" stop-opacity="0.12"/>
<stop offset="1" stop-color="#808080" stop-opacity="0.1"/>
</linearGradient>
</defs>
</svg>
